<?xml version="1.0" encoding="UTF-8"?><svg xmlns="http://www.w3.org/2000/svg" viewBox="0 0 518.4 518.4">
<defs>
    <style>
    .cls-1 {
        fill:#fff;
        opacity:0;
    }
    path:not(.cls-1) {
        fill: #000;
        opacity: 0.9;
    }
    @media (prefers-color-scheme: dark) {
        path:not(.cls-1) {
            fill: #fff;
        }
    }
    </style>
</defs>
<path class="cls-1" d="M0,0H518.4V518.4H0V0ZM235.69,445.16c1.3,.39,3.07,.83,4.77,1.47,.92,.35,2.38,.95,2.45,1.58,.28,2.44,2.54,2.76,3.81,4.09,.99,1.03,2.03,2.56,3.23,2.75,2.16,.35,4.45,2.42,6.71,.17,.1-.1,.46,0,.67,.07,2,.68,3.96,1.46,5.98,2.06,2.14,.64,4.17,.7,6.48-.05,2.09-.68,4.58-.19,6.89-.15,2.03,.04,4.06,.17,5.7,.25,1.09,.77,2.02,1.43,2.94,2.08,.41-.89,.83-1.78,1.17-2.5,2.26-.13,4.65,.06,6.86-.48,3.05-.74,6.03-1.6,9.2-1.35,.85,.07,1.7,.24,2.54,.4,2.42,.46,4.94,.66,7.23,1.47,2.29,.81,2.69,.84,3.35-1.69,.54,.11,1.23,.05,1.6,.37,2.77,2.34,6.27-.15,9.14,1.42,.13,.07,.51-.08,.63-.24,1.6-2.2,4.25,.03,6.3-1.51,.77-.58,3.58,.72,4.86,1.84,1.69,1.48,2.66,.82,3.69-.37,1.1-1.26,2.3-1.76,3.69-.72,1.47,1.1,2.78,1.78,4.41,.28,.26-.24,1.02,.02,1.53,.13,.81,.18,1.61,.44,2.41,.67l.61-2.23c.67,.27,1.3,.65,1.97,.78,1.84,.37,3.84,1.22,5.53,.83,3.27-.76,6.33-2.71,9.76-.66,2.91-1.63,5.75,2.86,8.91,0,.79-.72,2.96,.11,4.49,.18,3.26,.15,6.51,.28,9.77,.38,1.49,.04,2.99-.12,4.47,0,2.73,.21,5.45,.69,8.19,.8,1.39,.06,2.8-.54,4.21-.65,2.06-.16,4.13-.24,6.19-.16,1.38,.05,3.14-.03,4.04,.75,1.67,1.45,4.36-.2,5.52,2.14,0,.02,.27-.09,.53-.18-.27-.48-.53-.94-.59-1.03,4.82-3.32,9.41-2.46,13.88,.54,3.21-2.35,6.4-.8,9.63,.1,.33-.59,.65-1.19,.64-1.17,2.51,.37,4.65,.68,6.49,.95,.95-1.28,1.5-2.27,2.29-3.01,.39-.37,1.45-.58,1.81-.32,1.31,.96,1.67,.42,2.2-.81,.78-1.84,2.25-2.69,4.26-1.85,1.57,.66,1.78-.36,1.95-1.46,.25-1.63,.26-3.33,.77-4.88,.57-1.75,.16-2.9-.96-4.32-1.34-1.69-4.13-3-2.54-5.5-1.83-1.87-3.45-3.54-5-5.12-.85,.57-1.9,1.55-3.15,2.01-1.05,.39-2.33,.2-3.51,.2-1.02,0-2.14,.18-3.02-.18-1.39-.57-2.63-1.5-3.91-2.32-.94-.6-1.86-1.78-2.76-1.76-1.45,.04-2.89,.86-4.33,1.36l.34,.33-.21,.12c-1.88-.14-3.64,.26-5.4,.69-2.65,.64-5.4,2.53-7.61-.91-.35-.55-1.28-.73-1.89-1.06-2.42,2.09-4.2,2.02-5.42-.22-2.06,1.06-3.89,2.72-6.56,2.16-2.49-.52-5.06-.67-5.91-3.64-2.73,1.07-4.94,4.14-8.18,1.48-.08-.07-.33-.05-.43,.02-2.09,1.51-5.63-.86-7.02,2.61-.06,.15-.62,.26-.86,.17-1.1-.42-2.17-.93-3.7-1.6-.67,0-2.06-.35-3.16,.07-3.16,1.19-6.33,1.14-9.17-.31-2.35-1.19-4.02-.66-6.07,.38-.76,.39-2.61,.11-2.91-.43-.49-.9-.19-2.28-.1-3.44,.06-.82,.48-1.63,.46-2.44-.02-1.05-.27-2.11-.51-3.15-.18-.82-.58-1.6-.73-2.42-.32-1.83-.97-3.74-.68-5.49,.34-2.03,1.78-3.53,.99-6.15-1.02-3.41-.71-7.23-.84-10.88-.06-1.75,.17-3.52,.26-5.27,1.03,.07,1.87,.12,2.71,.18,.12-2.83-3.91-4.59-1.47-7.71-.67-1.91-1.25-3.93-2.1-5.84-.55-1.25-.62-1.77,.96-2,1.38-.2,1.9-.83,1.12-2.51-.83-1.79-1.08-3.91-1.27-5.92-.17-1.72,.1-3.47,.18-5.21,2.96-.36,6.32-.84,9.69-1.15,1.03-.1,2.14,.51,3.14,.36,2.41-.37,4.72-.77,7.11,.3,.95,.43,2.41,.81,2.84-1.08,.07-.3,.91-.59,1.39-.59,1.93,0,3.85,.21,5.77,.16,1.61-.05,3.21-.4,4.81-.55,1.16-.11,2.34-.13,3.51-.19l.04-.73c2.35,.94,4.69,1.9,7.06,2.8,.31,.12,.75-.09,1.12-.18,1.8-.42,3.19,.01,4.19,1.7,.54,.9,1.27,2.23,2.38,.35,.14-.24,.7-.32,1.06-.33,2.48-.03,4.96-.01,7.71-.01,.51-1.87,1.65-1.34,3.55-.67,2.3,.81,4.95,.74,7.46,.85,2.05,.08,4.25-.64,5.33,2.09,.18,.46,1.47,.73,2.2,.66,.76-.07,1.87-.48,2.13-1.05,.95-2.14,2.5-2.87,4.65-1.98,.59,.24,1.59,.39,2,.06,2.77-2.21,5.74-.86,7.83-.82,1.08,1.2,2.05,2.6,2.29,2.48,2.37-1.13,5.3-2.02,6.72-3.96,1.75-2.39,2.32-5.69,3.17-8.66,.25-.86-.42-1.94-.42-2.92,0-1.8,.59-3.71,.14-5.36-.41-1.54-1.65-3.01-2.88-4.12-.98-.89-2.5-1.2-4.4-2.05-1.75,.99-2.36-1.28-3.51-3.08-.79,3.6-4.02,3.52-6.27,4.42-1.25,.5-3.26-.92-4.92-1.49-.56-.19-1.21-.73-1.63-.58-2.51,.87-4.82,1.73-7.7,.9-1.98-.57-4.35,.28-6.54,.33-1.44,.03-2.91-.65-4.11,.87-.24,.31-1.43,.17-2-.12-3.28-1.67-6.41-2.66-10.28-1.37-1.95,.65-4.74,1.52-6.76-.72-.81-.9-1.51-.58-2.61-.28-1.57,.44-3.6,.45-5.04-.22-2.22-1.03-4.48-1.06-6.7-1.03-1.83,.03-3.65,.9-5.47,1.41-1.03,.29-2.05,.59-3.35,.97q-1.76-1.08-4.87,.04c-2.96,1.07-4.56,.56-5.25-1.13h-13.6c-1.42-3.06,3.41-6.46-.62-8.8,.38-1.21,.78-2.07,.89-2.97,.13-1.01,0-2.05-.03-3.07-.03-1.21-.01-2.42-.09-3.63-.04-.71-.26-1.4-.34-2.11-.21-1.74-.5-3.48-.54-5.22-.07-2.61-.66-5.54,.32-7.73,.71-1.59,.79-2.59,.33-4-.17-.51-.16-1.1-.15-1.64,.06-2.94,2.92-5.71,.53-8.8-.03-.04,.05-.17,.02-.23-.97-2.62,.7-4.31,2.3-5.99-1.56-1.92-2.82-3.74-1.16-6.09,.14-.2,0-.62-.05-.93-.45-2.91-.9-5.82-1.35-8.73,2.19-.16,2.41-.66,1.52-2.5-1.33-2.75-2.59-5.55-3.66-8.41-1.1-2.93-1.35-6.32-4.92-7.64-.5-.19-.93-.59-1.39-.89-3.6-2.31-5.71-2.22-8.21,1.32-3.29,4.67-6.09,9.68-8.91,14.23,.81,1.16,2,2.13,1.85,2.79-.47,2.03,.63,3.67,.84,5.49,.27,2.29,.05,4.49-.95,6.57-.61,1.27-1.35,2.47-2.02,3.68,2.66,1.62,3.1,4.64,1.38,7.06-1.44,2.03-1.45,4.24-.34,6.32,1.55,2.94,1.59,3.87-.45,6.38,.25,.46,.39,1.13,.77,1.33,2.09,1.07,2,2.67,1.44,4.58-.41,1.38-.6,2.83-.74,4.27-.23,2.53-.46,5.08-.47,7.62-.01,2.37,.56,4.77,.31,7.09-.43,4.04,.37,7.85,1.24,11.75-2.93,.3-5.7,.21-6.51-3.71-1.81,1.05-3.34,1.94-4.93,2.85-.82-1.63-4.09,1.58-4.11-2.04-1.81,1.3-4.29-.08-5.66,1.99-.1,.16-1.14,0-1.43-.31-1.31-1.42-2.91-.98-3.81-.03-1.17,1.24-2.36,1.34-3.8,1.32-.61-.01-1.29,.06-1.84,.31-2.92,1.39-4.42,1.45-7.75,.25-.25-.09-.64,.01-.9,.14-1.69,.82-2.61,.1-2.96-1.83-1.7,.92-3.08,1.81-4.59,2.42-.7,.29-1.63,.13-2.43,.02-1.42-.21-2.82-.54-4.69-.92-.26-.43-.82-1.37-1.36-2.27-1.18,.3-2.32,.38-3.24,.87-1.41,.74-2.61-.46-3.55-.33-2.19,.28-4.39,1.28-6.33,2.42-2.51,1.47-3.43,1.38-4.3-1.23,.36-.64,.78-1.64,.48-1.93-1.9-1.89-1.56-3.29,.91-4.39-1.57-2.32-1.62-4.28-.04-6.67,.69-1.05,.28-3.09,1.26-4.48,.1-.14-.22-.56-.33-.85-.87-2.17-1.74-4.34-2.73-6.8,1.34-.31,2.29-.52,3.64-.83-.49-.81-.94-1.4-1.23-2.05-.92-2.11-1.89-4.21-2.58-6.4-.16-.51,.77-1.31,1.09-2.03,.36-.82,.68-1.68,.86-2.55,.1-.47-.38-1.16-.17-1.48,.86-1.34-.13-2.04-.61-3.13-.82-1.86-.99-4-1.43-6.02,0-.04,.12-.1,.17-.16,1.81-2.8,.72-5.74,.2-8.56-.26-1.44-1.31-2.73-1.69-3.48,.95-1.37,2.15-2.82,2.02-2.95-1.34-1.33-.64-2.56-.16-3.9,.39-1.08,.66-2.22,.82-3.36,.06-.47-.21-1.05-.5-1.48-.47-.7-1.06-1.31-1.76-2.13,2.84-1.9,2.78-3.62,.64-6.18-2.42-2.9-1.52-5.18,2.08-6.04,2-.48,2.7-1.31,2.45-2.81,1.94-1.55,3.73-2.84,5.35-4.31,1.29-1.18,2.26-2.72,3.59-3.84,2.13-1.8,4.43-3.41,6.69-5.05,2.32-1.68,3.29-4.69,6.48-5.69,1.81-.56,3.11-2.7,4.67-4.1,.4-.36,1.07-.49,1.33-.91,1.42-2.29,6.17-1.59,5.31-5.93-.04-.22,.28-.67,.52-.76,3.58-1.34,3.32-7.48,8.51-6.79,1.08-2.52,5.46-.64,5.72-4.29,0-.11,.42-.17,.62-.3,.98-.68,1.94-1.39,2.92-2.07,.87-.61,1.72-1.66,2.63-1.71,2.99-.17,4.12-1.38,3.74-4.27,.82-.68,1.49-1.29,2.2-1.81,.61-.45,1.43-1.28,1.9-1.13,2.31,.72,3.39-.1,3.44-2.52,.99,.23,1.75,.5,2.53,.56,1.37,.12,2.15-.73,1.52-1.88-1.14-2.08,.3-2.59,1.39-3.9,1.61-1.93,5.08-2.53,4.65-5.23,2.47-1.51,4.56-2.79,6.94-4.24,.23,.25,.8,.78,1.26,1.39,2.55,3.38,4.99,6.85,7.65,10.15,1.29,1.6,3.25,2.7,4.37,4.38,1.09,1.63,1.93,3.17,3.95,3.87,1.15,.4,2.22,1.27,3.09,2.15,1.64,1.67,2.92,3.72,4.69,5.22,2.54,2.16,5.38,3.96,8.09,5.91-.17,.86-.32,1.63-.48,2.41,.62,.03,1.32-.16,1.6,.11,2.38,2.25,4.93,4.39,6.9,6.98,.91,1.21,1.7,1.97,3.07,2.15,2.35,.3,4.05,2.86,3.43,5.15-.17,.61-.12,1.28-.17,1.99,3.06-.57,4.83,.93,5.33,4.03,1.53,.94,2.91,1.93,4.41,2.68,2.03,1.02,3.74,2.15,3.85,4.74,.02,.52,.67,1.03,1.08,1.5,.67,.78,1.87,1.47,1.99,2.32,.47,3.31,3.2,3.57,5.47,4.55,1.03,.45,2.15,.86,2.96,1.59,1.76,1.58,3.35,3.35,5.01,5.04,1.03,1.05,2.02,2.14,3.1,3.14,1.69,1.57,3.21,3.55,5.21,4.49,2.55,1.21,4.31,3.03,5.05,5.43,.5,1.62,1.39,2.21,2.58,2.83,1.41,.74,2.84,1.48,4.31,2.08,.7,.29,1.67,.58,2.27,.32,1.81-.81,3.52-1.74,5.63-1.23,.24,.06,.63-.59,.99-.86,.55-.42,1.11-.86,1.71-1.19,1.54-.84,3.77-1.24,4.52-2.52,1.24-2.12,1.92-4.47,4.58-5.34,.22-.07,.24-.75,.41-1.35h-1.99c-.18-1.98-.31-3.76-.52-5.54-.04-.34-.32-.8-.62-.92-2.02-.87-2.36-2.53-2.53-4.5-.09-1.06-.64-2.5-1.46-3-1.71-1.03-3.79-1.45-5.62-2.33-1.09-.52-2.23-1.24-2.94-2.18-1.39-1.84-2.49-3.89-3.71-5.86-1.69,1.21-2.95,.7-3.91-1.08-.25-.46-.6-1.17-.97-1.22-4.01-.55-4.17-5.74-7.95-6.54-.16-.03-.15-.59-.32-.84-.44-.65-1.06-1.21-1.37-1.9-.93-2.1-5.24-1.44-3.84-5.36-1.09,.33-1.81,.55-2.85,.87-1.67-2.34-3.34-4.68-4.9-6.85,.74-.69,1.4-1.31,2.31-2.16-6.59-1.82-8.8-3.13-8.67-4.67,1.01-.62,1.89-1.16,2.77-1.71l-.29-.68c-1.34-.11-2.67-.21-3.72-.3,1.68-1.72,4.06-3.17,4.81-5.22,.81-2.21,1.78-2.67,3.73-2.6,.39,.01,.79-.43,1.25-.69-.92-2.24-1.27-4.13,2.04-4.27,.49-.02,.94-.76,1.41-1.15,.47-.39,1.1-1.18,1.4-1.07,3.14,1.13,3.56-1.76,4.01-3.23,1.11-3.67,3.26-5.44,7-5.52,.35,0,.69-.26,1.14-.43-.42-.6-.75-1.07-1.33-1.91,1.34-.31,2.48-.35,3.38-.84,1.74-.94,3.93-1.81,4.8-3.35,.67-1.19,1.18-2.25,2.3-3.1,1.53-1.16,3.4-2.24,4.26-3.82,.97-1.79,1.56-3.25,3.95-3.16,.68,.03,1.92-.88,2.02-1.5,.48-2.83,2.23-2.77,4.41-2.49,.79,.1,1.66-.49,2.5-.77l-1.01-2.17-.85-.5c.98-.68,2.01-1.3,2.92-2.07,1.31-1.11,2.13-2.39,.82-4.09-.75-.97-1.58-1.93-2.08-3.02-.9-1.96-1.54-4.04-2.39-6.03-.19-.44-.82-.7-1.27-1-1.96-1.27-4.15-2.29-5.83-3.86-1.32-1.24-2.1-1.27-3.64-.5-1.32,.67-3.26,1.25-4.46,.74-2.09-.87-2.61,.07-3.41,1.51-.6,1.06-1.4,2.07-2.31,2.88-.81,.73-1.89,1.16-3.21,1.94,.11,.04-.33-.12-.78-.27l.39,.62c-.91,1.04-1.66,2.34-2.78,3.05-1.34,.86-3.21,.93-4.48,1.86-1.74,1.27-3.05,3.1-4.69,4.53-1.02,.9-2.3,1.5-3.47,2.24-.35,.22-.73,.42-1.01,.7-2.23,2.29-4.45,4.59-6.77,7,.09,.2,.34,.71,.84,1.75l-2.55-.81c-2.67,2.39-4.91,4.83-7.59,6.62-1.68,1.12-2.89,2.27-3.63,4.09-.23,.56-.95,1.42-1.29,1.35-3.28-.61-3.66,2.1-4.37,3.98-1.09,2.92-3.5,4.94-6.14,4.31,1.22-2.24,.5-2.98-1.95-2.64-.36,.05-1.03-1.27-1.36-2.05-.2-.46-.04-1.08-.04-1.69-4.14,.83-5.63-.23-6.13-4.08-2.4-.44-5.04-3.3-5.58-5.6-.16-.7-1.2-1.2-1.86-1.77-.98-.83-2.62-1.49-2.83-2.46-.41-1.93-1.73-2.66-2.99-3.74-1.2-1.02-3.26-1.54-2.87-3.81,2.91-.81,2.94-.85,1.67-3.37,2.56-3.2,5.13-6.41,7.59-9.49,1.32-.74,2.58-1.81,4.01-2.15,2.58-.62,1.73-2.39,1.58-3.96,1.08-.41,2.03-.79,2.99-1.12,.74-.25,1.49-.45,2.24-.67-.35-.8-.7-1.61-1.09-2.52,1.82-2.58,1.83-2.54,5.45-3.74,.69-.23,1.25-.89,1.82-1.4,1.63-1.45,3.62-2.43,5.09-4.1,.45-.51,1.39-.6,2.11-.88l-.56-.43c.32-1.03,.36-2.66,1.03-2.97,2.41-1.13,3.09-3.66,4.84-5.28,.73-.68,1.91-1.37,2-2.15,.23-2.13,1.96-2.86,3.28-3.05,2.31-.32,2.95-1.11,1.88-3.29,3.15-.14,3.99-2.22,4.44-4.77,4.09,1.24,5.81-2.54,7.28-4.48,2.28-2.99,4.82-5.3,7.71-7.56,2.33-1.82,4.17-4.27,6.54-6.78-.09,0,.38,.01,.84-.07,.53-.1,1.05-.27,1.55-.4,.2-1.67,1.62-3.11,3.37-3.67,.69-.22,1.59-.54,1.91-1.09,1.79-3.12,2.77-3.65,6.27-3.49,.62,.03,1.92-1.06,1.84-1.3-.7-2.23,.46-3.4,2.1-4.51,.54-.36,.82-1.11,1.2-1.69,.73-1.14,1.3-2.42,2.21-3.39,1.91-2.03,4-3.89,5.58-5.4-1-1.87-1.8-3.32-2.57-4.8-.77-1.47-1.18-3.35-2.35-4.35-2.08-1.77-3.02-3.64-2.8-6.37,.05-.64-1.14-1.69-1.96-2.02-1.93-.76-3.98-1.2-5.93-1.76l-11.27,5.13-4.52,8.04-1.28-.09-3.57,2.25c-.46,3.05-2.9,4.97-5.1,6.9-2.21,1.95-3.55,5.27-6.7,5.07-.94,1.11-1.51,1.96-2.26,2.63-1.39,1.24-3,2.23-4.29,3.56-1.99,2.05-3.76,4.29-5.66,6.43-.25,.29-.67,.61-1,.61-2.01-.03-2.91,.77-2.54,2.88,.06,.36-.51,.97-.93,1.26-2.48,1.77-5.23,3.23-7.46,5.26-3.39,3.09-6.38,6.61-9.65,9.85-.75,.74-2.06,.88-2.86,1.59-2.36,2.11-4.59,4.35-6.86,6.56-.39,.38-.8,.77-1.08,1.23-1.72,2.88-3.39,5.78-5.12,8.66-.17,.29-.58,.56-.91,.62-4.82,.81-7.21,4.4-8.41,8.46-.73,2.45-2.03,2.96-3.94,3.22-1.2,.16-1.65,.5-1.8,1.86-.11,1-1.41,2.76-1.93,2.67-2.93-.48-1.06,1.76-1.77,3.03-2.61-.71-5.18-1.58-7.72-2.51-.3-.11-.5-.62-.65-.98-.97-2.3-1.74-4.57-4.19-6.05-1.55-.94-2.27-3.15-3.69-4.42-1.03-.92-2.58-1.21-2.46-3.08,.01-.24-.88-.66-1.4-.79-.72-.18-1.49-.16-2.33-.24,.21-1.28,.37-2.26,.44-2.71-1.4-.79-2.56-1.25-3.45-2.02-.61-.53-.95-1.46-1.21-2.28-.81-2.55-1.64-4.86-5.05-4.89-1.44-.01-2.88-.86-4.32-1.33v-.69c1.5-.83,3.02-1.6,4.45-2.5,1.37-.86,2.7-1.81,3.96-2.82,.72-.57,1.18-1.52,1.94-1.99,1.25-.77,2.74-.98,3.67-2.46,.9-1.44,2.34-2.53,3.46-3.85,.25-.3-.01-1.01,.22-1.36,.93-1.42,1.7-3.16,3.02-4.03,1.47-.98,3.52-1.05,5.24-1.73,.6-.24,1.34-1.06,1.37-1.65,.09-1.55,.82-2.02,2.23-2.2,1.77-.22,3.6-.58,3.25-3l5.99-2.35c.31-.61,.51-1.74,1.14-2.11,1.37-.81,2.97-1.24,4.43-1.81-.07-2.56,2.45-6.03,4.56-6.93,1.22-.52,2.91-1.49,3.09-2.5,.29-1.54,1.08-2.02,2.14-2.75,1.5-1.03,3.64-1.53,3.83-3.92,.02-.31,.46-.81,.76-.85,3.13-.42,2.6-2.47,1.91-4.51l1.09-.22c-.43-.84-1.04-1.57-1.17-2.37-.51-3.38-1.5-5.89-5.29-7.33-2.45-.93-4.39-3.36-7.38-3.52-1.09-.06-2.58-.57-3.2-.05-2.38,2.01-5.68,1.67-8.13,3.87-1.93,1.73-4.3,2.86-5.17,5.56-.09,.27-.3,.59-.54,.72-3.96,2.03-6.47,5.54-9.13,8.89-.19,.24-.43,.57-.68,.61-3.47,.46-5.56,3.13-8.16,4.99-.73,.53-1.65,.8-3.06,1.46-1.61,1.86-2.86,5.24-6.88,5.36-.23,.72-.24,1.68-.72,2.11-2.24,2.03-4.61,3.58-6.02,6.71-1.36,3.03-4.65,5.16-6.93,7.82-.79,.92-1.1,2.26-1.66,3.4-.31,.64-.66,1.27-1,1.9-.91-.78-1.04-1.49-1.42-2.02-.46-.66-1.02-1.47-1.71-1.7-2.93-1.01-3.64-1.98-3.77-5.03-.02-.55-1.12-1.52-1.7-1.5-2.81,.09-2.81,.18-2.05-2.98-1.47-.7-3.01-1.44-4.56-2.15-.81-.37-1.8-.52-2.44-1.08-1.95-1.69-4.18-3.28-5.5-5.4-1.12-1.8-4.21-2.66-3.06-5.51-4.16-2.42-9.17-3.65-9.87-9.49-.08-.65-.87-1.29-1.45-1.81-1.01-.9-2.16-1.65-3.15-2.57-2.01-1.87-4.68-.78-6.92-1.61-.25-.09-.71,.28-1.04,.49-1.42,.89-2.76,1.94-4.26,2.66-1.48,.71-3.52,.31-4.14,2.54-.44,1.6-1.14,3.13-1.8,4.91-1.15,.45-2.61,1.01-4.06,1.57l.48,.45c-.31,.59-.48,1.33-.94,1.76-1.71,1.62-3.53,3.13-5.29,4.71-1.11,1-2.04,2.27-3.29,3.04-2,1.24-3.3,2.79-3.4,5.05l-5.95,1.2c.3,2.21-1.21,3.31-2.75,4.47-.78,.59-1.47,1.41-1.95,2.27-1.62,2.89-3.96,5-6.88,6.41-1.14,.55-2.56,.55-4.02,.83-1.51,1.94-3.28,4.14-4.97,6.41-.56,.75-.9,1.67-1.48,2.78-.78,.6-1.9,1.39-2.96,2.26-1.14,.93-2.24,1.9-3.32,2.89-.88,.81-1.73,1.65-2.58,2.5-1.02,1.02-2.47,1.9-2.94,3.14-.73,1.95-1.9,3.07-3.64,4.06-2.08,1.18-4.47,2.41-5.71,4.29-1.26,1.91-2.16,3.53-4.66,3.4,.13,2.58-1.08,4.04-3.29,4.91-.89,.35-1.77,1.59-2,2.58-.34,1.48-1.06,1.83-2.3,1.51-.64-.16-1.21-.58-1.84-.9-.78,1.12-1.8,2-2.06,3.07-.86,3.5-3.26,4.59-6.5,4.89-2.23,.21-3.3-.37-3.42-2.6-.08-1.49-.57-2.03-2.06-1.63-.51,.14-1.09,.02-1.6,.02-3.63-6.36-2.23-5.79-8.19-9.24-2.6-1.5-4.64-4-6.88-6.09-.3-.28-.5-.87-.46-1.29,.12-1.49-.65-2.04-1.95-2.54-1.33-.52-3.27-1.32-3.52-2.35-.36-1.5-.66-2.24-2.21-2.43-.36-.04-.63-.74-.85-1.02,1.81-2.82,5.64-3.44,6.4-6.91l3.78-.93-.62-.69c.76-1.18,1.35-2.54,2.34-3.49,1.31-1.26,3.56-1.89,4.24-3.33,.79-1.67,1.8-2.01,3.21-2.6,.91-.37,2.15-1.84,1.99-2.54-.37-1.67,.47-2.07,1.55-2.71,1.63-.98,3.3-1.97,4.71-3.23,1.77-1.58,3.23-3.49,5.94-3.43,.27,0,.87-.81,.78-.99-.99-2.06,.6-2.27,1.85-2.94,.94-.5,1.65-1.41,2.49-2.1,.58-.48,1.24-1.33,1.82-1.29,2.39,.16,3.14-1.2,3.55-3.17,.12-.55,.62-1.03,.98-1.58l1.65,1.42,.54-6.96,2.16,.65c-.19-2.12,.59-2.83,2.5-2.11,.31,.12,1.03-.14,1.2-.43,.89-1.54,2.12-1.34,3.51-.91,1.72,.53,2.72,.15,2.8-1.95,.04-1.12-.4-2.9,1.77-2.98,.1,0,.42-1.12,.21-1.42-1.21-1.73-2.59-3.34-3.82-5.06-.94-1.31-2.54-2.8-2.43-4.08,.38-4.47-2.17-7.27-6.74-6.62-2.03,.29-4.16,.43-6.02,1.19-2.24,.92-4.42,2.21-6.3,3.74-1.41,1.14-2.36,2.88-3.43,4.42-.82,1.18-2.17,2.2-1.16,4.02,.2,.36-.19,1.36-.6,1.71-1.92,1.64-3.9,3.21-5.96,4.66-.35,.24-1.23-.12-1.79-.37-.52-.23-.93-.7-1.43-1.09-.31,.43-.5,.68-.68,.94-1.9,2.58-2.6,6.18-6.2,7.36-.27,.09-.37,.64-.59,.94-1.58,2.21-3.06,4.5-4.8,6.58-.76,.91-2.07,1.28-3.07,2.12-2.39,2-4.05,4.48-5.59,6.93-1.41,2.26-3.04,3.6-5.07,3.98-.65,4.86-4.33,7.08-7.18,10.12-.52-2.82-.52-2.8-3.3-2.97-.46-.03-.9-.32-1.36-.35-2.31-.16-2.92-2.8-4.51-3.4-3.17-1.19-3.4-4.38-4.21-6.43-.92-2.32-2.71-3.17-3.91-3.17-2.13,0-2.65-1.21-3.49-2.46-.34-.51-.61-1.13-1.07-1.49-2.5-1.95-5.05-3.83-7.58-5.73-.13-.09-.29-.14-.42-.23-3.2-1.92-7.02-3.1-8.54-7.04-1.55-4.02-3.74-7.41-7.6-9.76-3.89-2.36-5.83-7.05-10.12-9.07-.21-.1-.49-.25-.55-.44-.63-1.88-2.35-2.03-3.87-2.49-4.41-1.34-6.63-.37-9.42,3.3-1.5,1.97-1.95,4.79-4.59,5.92-.29,.13-.43,.93-.41,1.41,.06,1.57,.23,3.13,.37,4.8,2.17,1.07,3.07,2.87,2.62,4.53,1.75,1.87,3.32,3.47,4.8,5.15,.97,1.1,1.59,2.62,2.74,3.44,2.16,1.54,3.82,3.21,4.95,5.74,.96,2.16,2.73,4.05,4.45,5.75,1.31,1.3,3.22,1.97,4.64,3.17,2.14,1.81,4.1,3.83,5.24,4.91l4.65,7.37c1.6,.1,2.95,.67,4.27,1.31,.49,.24,.84,.86,1.33,.97,3.65,.79,5.2,4.26,7.9,6.27,3.2,2.39,4.4,6.84,8.05,9.07,1.2,.74,1.74,1.77,2,3.43,.27,1.75,1.73,3.89,3.28,4.7,1.76,.92,1.87,3.08,3.89,3.69,1.41,.43,2.62,1.75,3.75,2.84,2.05,2,4.22,3.96,5.9,6.27,1.87,2.58,5.45,3.91,5.67,7.3,1.24,.71,2.35,1.24,3.36,1.93,1.11,.75,2.19,1.57,3.17,2.5,.83,.78,2.01,1.7,2.1,2.65,.25,2.54,.68,4.68,3.41,5.71,.57,.21,1.19,1.03,1.27,1.65,.47,3.4,3.46,3.49,5.78,4.82l-2.72,.75c-.68,1.93-1.59,3.73-2.94,5.1-1.08,1.09-2.98,1.4-3.99,2.53-1.49,1.67-2.26,3.99-3.8,5.61-2.94,3.08-6.16,5.9-9.35,8.72-.63,.56-1.93,.42-2.48,1.01-1.19,1.26-1.98,2.89-3.14,4.18-.99,1.09-2.27,1.92-3.42,2.86-.74,.5-1.37,1.14-1.97,1.8-.64,.69-1.82,1.45-1.76,2.09,.15,1.52-.76,1.59-1.68,2.05-2.7,1.36-5.54-.13-7.97,.47-.77,.84-1.36,1.54-1.99,2.19-1.94,1.98-3.74,4.16-5.92,5.83-.99,.76-1.32,3.85-3.92,1.24-1.38,3.28-2.47,6.28-3.91,9.11-.62,1.23-1.92,2.13-3,3.09-.43,.39-1.23,.4-1.58,.82-2.18,2.59-4.27,5.25-6.43,7.87-.67,.81-1.39,1.62-2.2,2.29-1.45,1.2-3.59,1.72-3.55,4.26,0,.47-.98,.93-1.48,1.43-.52,.52-.99,1.1-1.52,1.62-1.02,1-1.94,2.16-3.12,2.91-1.25,.79-3,.88-4.09,1.81-2.56,2.18-4.95,4.59-7.22,7.09-.81,.9-1.15,2.28-1.53,3.49-.25,.81,.13,2.01-.34,2.53-1.96,2.2-.97,4.31-.24,6.56,.51,1.57,.66,3.25,1.08,4.86,.12,.46,.5,.99,.91,1.22,3.29,1.86,6.73,3.34,10.48,3.96,.92,.15,2.08,.5,2.76,.11,2.73-1.56,5.3-.41,7.94,.05,.66,.12,1.37,.11,2.04,.04,1.03-.12,2.04-.35,3.06-.53,1.73-.33,2.81-2.74,5.27-1.27,.16,.1,.54,.05,.69-.08,1.81-1.49,3.81-.93,5.82-.64,1.22,.18,2.47,.17,3.71,.27,2.83,.23,5.66,.43,8.48,.72,3.69,.38,7.37,1.1,11.06,1.17,2.21,.04,4.42-.98,6.66-1.31,1.02-.15,2.11,.21,3.17,.33,.73,.09,1.63,.48,2.16,.2,1.84-.99,3.42-.64,5.05,.4,.73,.47,1.58,.76,2.6,1.24-.12-1.11-.19-1.74-.28-2.48,.46,.09,.68,.14,.91,.18,3.64,.62,7.49-.66,11.01,1.2,.22,.11,.91-.13,.97-.34,.54-1.73,2.01-1.43,3.16-1.31,3.42,.34,6.83,.86,10.29,1.31-.29,2.43,0,4.67-.9,6.22-.9,1.55-.52,2.57-.11,3.86,.14,.44,.56,.89,.5,1.29-.53,3.7,1.88,7.14,.44,11.11-1.12,3.09-.8,6.7-1.13,10.23,1.86,.21,2.12,1.67,1.72,3.28-.81,3.29-1.77,6.54-2.7,9.94,.37,.28,1.2,.78,1.84,1.45,.27,.28,.37,1.26,.21,1.36-2.26,1.37-.87,3.34-.64,4.89,.37,2.53,1.24,4.94-.89,7.14-.29,.3-.21,1.05-.15,1.58,.28,2.4,.61,4.79,.99,7.65-1.12-.38-1.79-.68-2.5-.84-2.01-.45-4.02-2.28-6.09-.63-2.16,1.74-3.51,.88-4.92-.67-1.06,.07-2.21-.61-2.95-.3-1.89,.78-4-1-5.76,.69-.28,.27-1.12-.01-1.7-.09-.71-.1-1.51-.53-2.1-.33-2.87,1.02-3.98,.79-5.85-1.65-1.02,.49-2.07,1.02-3.14,1.5-.93,.43-2.17,1.4-2.79,1.11-3.52-1.64-6.71,.45-10.02,.7-3.3,.24-4.84,.06-6.71-2.61-3.11,1.62-5.28,1.3-7.75-1.11-1.3,.82-2.52,2.15-3.9,2.34-3.67,.5-7.41,.52-11.12,.72-1.26,.07-2.49-.47-3.71,.78-.5,.52-2.2-.11-3.35-.22-1.22-.12-2.44-.24-4.06-.39-1.06,.34-3.07,1.69-4.18,1.15-1.68-.81-3.2-.71-4.8-1.03-2.42-.49-4.27,.08-6.1,.84,.22,1,.89,2.49,.54,2.8-1.56,1.35-.78,2.78-.45,4.15,.66,2.75,2.61,5.43,.11,8.22-.12,.13-.01,.46-.02,.7-.07,1.69-.15,3.38-.25,5.82,1.86,2.48,1.87,2.47,5.75,3.74,.83,.27,1.64,.61,2.4,1.04,1.7,.96,3.14,1.18,3.79-1.26,2.2,.61,4.21,1.2,6.24,1.73,.98,.26,1.99,.42,3,.57,.67,.1,1.54,.36,1.99,.06,.35-.24,.22-1.22,.27-1.88,.03-.39,0-.77,0-1.1,.81-.44,1.5-1.03,2.3-1.22,1.78-.43,3.6-.69,5.41-.97,1.04-.16,2.09-.21,3.13-.32v-.84c1.37,1.19,2.68,1.46,4.04,.11,.28-.28,.85-.34,1.3-.36,1.55-.09,3.12-.04,4.66-.18,2.12-.19,4.22-.64,6.1,.97,.44,.37,1.35,.25,2.04,.27,2.96,.09,5.92,.18,8.89,.2,1.93,.01,4.21,.88,4.93-1.41,2.27-1.36,4.01,2.39,6.18-.07,.07-.08,.82,.2,.99,.48,1.12,1.82,2.77,1.2,4.26,.89,3.09-.64,6.07-1.1,8.85,1.07,.44,.34,1.53-.14,2.31-.3,.41-.08,.8-.45,1.18-.43,2.85,.2,5.7,.5,8.56,.68,.4,.03,.81-.53,1.23-.56,1.15-.09,2.52-.42,3.4,.07,.67,.37,1.01,1.86,.98,2.83-.06,1.89-.44,3.78-.79,5.65-.15,.81-.55,1.58-.83,2.36-.33,.91-1,1.83-.94,2.71,.14,2.15,1.37,4.32-.51,6.32-.1,.1,.2,.55,.28,.85,.53,1.97,1.91,4.22,1.38,5.84-1.18,3.65,.06,7.24-.62,10.79-.52,2.72-1.04,5.46-1.22,8.21-.09,1.3,.57,2.66,.97,3.98,.21,.7,.95,1.47,.79,2.02-1.01,3.68-.99,7.76-3.53,10.24,1.13,2.13,3.33,4.58,2.79,5.63-1.14,2.23,.31,3.66,.38,5.82-1.16,.41-2.54,1.41-3.72,1.21-2.43-.41-4.43,.27-6.35,1.08-.56-.53-1.18-.93-1.79-.91-1.3,.04-2.65,.58-3.89,.38-2.03-.34-3.96-1.3-5.99-1.63-1.93-.32-3.93-.3-5.9-.2-2.04,.1-3.87,1.3-6.17,.36-1.16-.47-2.94,.82-4.47,.98-1.72,.18-3.48-.03-5.23-.06-.48,0-1.02-.11-1.43,.07-3.76,1.64-3.76,1.65-6.34-.95-2.42,1.7-4.8,2.61-7.81,1.07-3.04-1.55-6.34-2.4-9.86-2.2-.94,.05-1.98-.91-2.88-.77-3.02,.47-5.98,1.73-9,0-.15-.09-.45,.11-.68,.13-1.79,.17-3.62-.1-5.22,1.23-.43,.36-1.58-.26-2.38-.2-1.44,.11-2.47-1.72-4.27-.46-2.74,1.93-5.87,3.29-8.65,5.18-.8,.54-1.08,2-1.37,3.1-.43,1.68-.67,3.41-.97,5.12-.19,1.11-.7,2.32-.44,3.32,.97,3.75,3.71,6.19,6.85,8.15,1.51,.94,3.18,1.89,4.89,2.18,2.74,.45,5.6,.66,8.37,.42,4.01-.34,8.15-.68,11.91-1.98,1.86-.64,3.03-.42,4.56,.08,3.07,1.01,6.25,1.74,9.43,1.06,3.64-.78,7.14-.93,10.67,.38,.56,.21,1.25,.14,1.86,.08,3.24-.35,6.48-.77,9.73-1.08,.58-.06,1.21,.24,1.79,.46,2.24,.87,4.45,1.79,6.76,.1,.39-.29,1.06-.37,1.56-.29,3.37,.55,6.72,1.28,10.15,.33,.59-.16,1.43-.28,1.88,.01,3.04,1.95,6.32,.22,9.45,.45,4.99,.37,9.99,.39,14.91,1.5,.38,.09,1.02,.14,1.19-.08,1.3-1.63,3.03-1.41,4.81-1.38,.82,.01,2.26-.32,2.37-.76,1.1-4.37,5.48-5.81,7.91-8.99,1.82-2.39,4.66-4,7.03-5.97,.21-.18,.4-.44,.49-.71,.39-1.07,.51-2.32,1.14-3.22,1.96-2.79,3.9-5.64,6.24-8.09,2.08-2.18,4.72-3.82,7.05-5.77,.53-.45,1.25-1.39,1.1-1.83-.7-1.96,.44-2.23,1.86-2.65,.62-.18,1.09-.96,1.56-1.53,.51-.61,.82-1.44,1.43-1.91,1.17-.91,2.48-1.64,3.68-2.4,1.25,1.08,2.77,2.37,4.25,3.7,.28,.25,.37,.72,.63,1,.29,.31,.67,.71,1.05,.75,2.56,.32,3.43,2.55,4.41,4.29,1.03,1.81,.82,4.45,2.06,5.98,1.7,2.1,4.07,3.97,6.54,5.03,1.56,.67,2.61,1.37,3.53,2.66,1.02,1.43,2.25,2.7,3.27,4.13,.29,.41,.14,1.14,.26,2.39Z"/><path d="M235.69,445.16c-.12-1.25,.03-1.97-.26-2.39-1.01-1.43-2.25-2.7-3.27-4.13-.92-1.29-1.97-2-3.53-2.66-2.47-1.06-4.84-2.93-6.54-5.03-1.24-1.53-1.03-4.17-2.06-5.98-.99-1.74-1.86-3.97-4.41-4.29-.38-.05-.75-.44-1.05-.75-.27-.28-.35-.75-.63-1-1.49-1.33-3.01-2.62-4.25-3.7-1.19,.76-2.51,1.49-3.68,2.4-.6,.47-.92,1.3-1.43,1.91-.47,.57-.94,1.35-1.56,1.53-1.42,.42-2.56,.69-1.86,2.65,.16,.43-.56,1.38-1.1,1.83-2.33,1.96-4.97,3.59-7.05,5.77-2.34,2.45-4.28,5.3-6.24,8.09-.63,.9-.75,2.14-1.14,3.22-.1,.26-.28,.53-.49,.71-2.37,1.97-5.21,3.58-7.03,5.97-2.43,3.19-6.81,4.62-7.91,8.99-.11,.44-1.55,.77-2.37,.76-1.77-.03-3.5-.25-4.81,1.38-.17,.21-.8,.16-1.19,.08-4.92-1.1-9.92-1.12-14.91-1.5-3.13-.23-6.4,1.5-9.45-.45-.45-.29-1.29-.17-1.88-.01-3.43,.94-6.78,.22-10.15-.33-.5-.08-1.17,0-1.56,.29-2.31,1.69-4.51,.77-6.76-.1-.57-.22-1.21-.52-1.79-.46-3.25,.31-6.48,.73-9.73,1.08-.62,.07-1.31,.13-1.86-.08-3.53-1.31-7.03-1.16-10.67-.38-3.18,.68-6.36-.05-9.43-1.06-1.53-.5-2.71-.72-4.56-.08-3.75,1.3-7.89,1.64-11.91,1.98-2.76,.23-5.62,.03-8.37-.42-1.71-.28-3.38-1.24-4.89-2.18-3.14-1.96-5.88-4.4-6.85-8.15-.26-1,.24-2.22,.44-3.32,.3-1.71,.54-3.44,.97-5.12,.28-1.1,.57-2.56,1.37-3.1,2.78-1.88,5.91-3.25,8.65-5.18,1.8-1.27,2.82,.56,4.27,.46,.8-.06,1.95,.56,2.38,.2,1.6-1.33,3.43-1.06,5.22-1.23,.23-.02,.53-.22,.68-.13,3.02,1.73,5.98,.46,9,0,.9-.14,1.94,.83,2.88,.77,3.52-.2,6.83,.65,9.86,2.2,3.01,1.54,5.39,.62,7.81-1.07,2.58,2.6,2.58,2.59,6.34,.95,.41-.18,.95-.08,1.43-.07,1.74,.03,3.5,.24,5.23,.06,1.53-.16,3.31-1.45,4.47-.98,2.3,.94,4.13-.26,6.17-.36,1.96-.1,3.97-.12,5.9,.2,2.03,.34,3.96,1.3,5.99,1.63,1.24,.2,2.59-.34,3.89-.38,.61-.02,1.23,.38,1.79,.91,1.92-.81,3.92-1.49,6.35-1.08,1.18,.2,2.56-.8,3.72-1.21-.07-2.16-1.52-3.59-.38-5.82,.54-1.05-1.67-3.5-2.79-5.63,2.54-2.48,2.52-6.55,3.53-10.24,.15-.56-.58-1.32-.79-2.02-.39-1.31-1.05-2.68-.97-3.98,.18-2.75,.7-5.49,1.22-8.21,.68-3.56-.56-7.15,.62-10.79,.53-1.63-.86-3.88-1.38-5.84-.08-.3-.38-.75-.28-.85,1.87-2,.65-4.17,.51-6.32-.06-.88,.61-1.8,.94-2.71,.29-.78,.68-1.55,.83-2.36,.35-1.87,.73-3.76,.79-5.65,.03-.97-.31-2.46-.98-2.83-.88-.49-2.25-.16-3.4-.07-.42,.03-.84,.59-1.23,.56-2.85-.19-5.7-.48-8.56-.68-.38-.03-.77,.34-1.18,.43-.78,.16-1.88,.64-2.31,.3-2.79-2.17-5.77-1.71-8.85-1.07-1.49,.31-3.14,.93-4.26-.89-.17-.28-.92-.56-.99-.48-2.16,2.47-3.91-1.29-6.18,.07-.72,2.28-3,1.42-4.93,1.41-2.96-.02-5.92-.11-8.89-.2-.69-.02-1.6,.11-2.04-.27-1.88-1.61-3.98-1.16-6.1-.97-1.55,.14-3.11,.1-4.66,.18-.45,.03-1.02,.08-1.3,.36-1.36,1.35-2.67,1.09-4.03-.11v.84c-1.05,.1-2.11,.16-3.14,.32-1.81,.28-3.63,.54-5.41,.97-.79,.19-1.49,.78-2.3,1.22,0,.32,.02,.71,0,1.1-.05,.66,.09,1.64-.27,1.88-.45,.3-1.31,.04-1.99-.06-1.01-.15-2.02-.32-3-.57-2.03-.53-4.04-1.12-6.24-1.73-.65,2.44-2.09,2.22-3.79,1.26-.75-.43-1.57-.77-2.4-1.04-3.88-1.27-3.89-1.26-5.75-3.74,.11-2.44,.18-4.13,.25-5.82,.01-.24-.1-.57,.02-.7,2.5-2.79,.55-5.48-.11-8.22-.33-1.36-1.11-2.79,.45-4.15,.35-.3-.33-1.79-.54-2.8,1.83-.77,3.68-1.33,6.1-.84,1.6,.32,3.12,.23,4.8,1.03,1.11,.53,3.11-.82,4.18-1.15,1.62,.16,2.84,.28,4.06,.39,1.15,.11,2.84,.74,3.35,.22,1.22-1.26,2.45-.71,3.71-.78,3.71-.2,7.45-.22,11.12-.72,1.38-.19,2.6-1.52,3.9-2.34,2.47,2.41,4.64,2.73,7.75,1.11,1.87,2.67,3.41,2.86,6.71,2.61,3.31-.24,6.5-2.34,10.02-.7,.62,.29,1.86-.68,2.79-1.11,1.07-.49,2.12-1.02,3.14-1.5,1.88,2.44,2.99,2.66,5.85,1.65,.59-.21,1.39,.23,2.1,.33,.58,.08,1.42,.36,1.7,.09,1.76-1.69,3.87,.09,5.76-.69,.74-.31,1.89,.37,2.95,.3,1.41,1.55,2.75,2.41,4.92,.67,2.06-1.66,4.07,.17,6.09,.63,.7,.16,1.38,.46,2.5,.84-.38-2.87-.71-5.26-.99-7.65-.06-.52-.14-1.28,.15-1.58,2.13-2.2,1.27-4.61,.89-7.14-.23-1.55-1.61-3.52,.64-4.89,.16-.1,.07-1.08-.21-1.36-.64-.67-1.47-1.17-1.84-1.45,.93-3.41,1.89-6.66,2.7-9.94,.4-1.61,.14-3.07-1.72-3.28,.33-3.53,.02-7.14,1.13-10.23,1.44-3.97-.98-7.4-.44-11.11,.06-.4-.36-.84-.5-1.29-.41-1.29-.79-2.32,.11-3.86,.9-1.55,.61-3.8,.9-6.22-3.46-.46-6.87-.98-10.29-1.31-1.16-.11-2.62-.42-3.16,1.31-.06,.21-.75,.45-.97,.34-3.52-1.86-7.37-.58-11.01-1.2-.22-.04-.45-.09-.91-.18,.08,.74,.15,1.37,.28,2.48-1.02-.48-1.86-.77-2.6-1.24-1.63-1.04-3.21-1.4-5.05-.4-.53,.29-1.43-.11-2.16-.2-1.06-.13-2.16-.48-3.17-.33-2.24,.33-4.45,1.35-6.66,1.31-3.69-.07-7.37-.79-11.06-1.17-2.82-.29-5.65-.49-8.48-.72-1.24-.1-2.49-.09-3.71-.27-2.01-.29-4.01-.85-5.82,.64-.16,.13-.53,.18-.69,.08-2.46-1.48-3.54,.93-5.27,1.27-1.02,.18-2.03,.41-3.06,.53-.67,.08-1.37,.08-2.04-.04-2.64-.46-5.22-1.61-7.94-.05-.68,.39-1.84,.05-2.76-.11-3.75-.62-7.2-2.1-10.48-3.96-.41-.23-.79-.76-.91-1.22-.41-1.61-.57-3.29-1.08-4.86-.73-2.25-1.71-4.36,.24-6.56,.47-.52,.09-1.72,.34-2.53,.38-1.21,.72-2.59,1.53-3.49,2.26-2.5,4.65-4.91,7.22-7.09,1.09-.92,2.84-1.02,4.09-1.81,1.18-.75,2.1-1.91,3.12-2.91,.53-.52,1-1.1,1.52-1.62,.5-.5,1.49-.96,1.48-1.43-.03-2.53,2.1-3.06,3.55-4.26,.81-.67,1.53-1.47,2.2-2.29,2.16-2.61,4.25-5.28,6.43-7.87,.35-.42,1.15-.44,1.58-.82,1.07-.96,2.37-1.87,3-3.09,1.44-2.83,2.53-5.84,3.91-9.11,2.59,2.61,2.93-.49,3.92-1.24,2.19-1.67,3.98-3.85,5.92-5.83,.64-.65,1.23-1.34,1.99-2.19,2.44-.61,5.27,.89,7.97-.47,.93-.47,1.83-.54,1.68-2.05-.06-.63,1.12-1.4,1.76-2.09,.61-.66,1.24-1.3,1.97-1.8,1.15-.94,2.43-1.77,3.42-2.86,1.16-1.29,1.95-2.92,3.14-4.18,.55-.59,1.85-.45,2.48-1.01,3.19-2.82,6.41-5.64,9.35-8.72,1.53-1.61,2.3-3.94,3.8-5.61,1.01-1.13,2.92-1.43,3.99-2.53,1.35-1.37,2.26-3.18,2.94-5.1l2.72-.75c-2.32-1.34-5.31-1.43-5.78-4.82-.08-.61-.7-1.44-1.27-1.65-2.73-1.02-3.16-3.17-3.41-5.71-.09-.95-1.27-1.87-2.1-2.65-.97-.92-2.06-1.74-3.17-2.5-1.01-.68-2.11-1.22-3.36-1.93-.22-3.39-3.79-4.72-5.67-7.3-1.68-2.3-3.84-4.26-5.9-6.27-1.13-1.1-2.34-2.42-3.75-2.84-2.02-.61-2.13-2.77-3.89-3.69-1.55-.81-3.01-2.96-3.28-4.7-.26-1.66-.79-2.69-2-3.43-3.65-2.23-4.85-6.68-8.05-9.07-2.7-2.01-4.25-5.48-7.9-6.27-.49-.11-.84-.73-1.33-.97-1.32-.64-2.67-1.21-4.27-1.31l-4.65-7.37c-1.14-1.08-3.09-3.11-5.24-4.91-1.43-1.2-3.34-1.87-4.64-3.17-1.72-1.7-3.49-3.59-4.45-5.75-1.13-2.53-2.79-4.2-4.95-5.74-1.15-.82-1.77-2.33-2.74-3.44-1.48-1.68-3.05-3.28-4.8-5.15,.45-1.65-.45-3.46-2.62-4.53-.14-1.67-.3-3.23-.37-4.8-.02-.48,.12-1.29,.41-1.41,2.64-1.13,3.09-3.95,4.59-5.92,2.8-3.67,5.01-4.63,9.42-3.3,1.52,.46,3.25,.6,3.87,2.49,.06,.19,.34,.34,.55,.44,4.29,2.02,6.23,6.71,10.12,9.07,3.87,2.35,6.05,5.74,7.6,9.76,1.52,3.93,5.34,5.12,8.54,7.04,.14,.08,.3,.13,.42,.23,2.53,1.9,5.08,3.78,7.58,5.73,.46,.36,.73,.98,1.07,1.49,.85,1.25,1.37,2.46,3.49,2.46,1.2,0,2.99,.85,3.91,3.17,.81,2.05,1.04,5.24,4.21,6.43,1.59,.6,2.2,3.23,4.51,3.4,.46,.03,.9,.33,1.36,.35,2.78,.16,2.78,.15,3.3,2.97,2.85-3.04,6.52-5.26,7.18-10.12,2.04-.38,3.66-1.72,5.07-3.98,1.54-2.45,3.19-4.94,5.59-6.93,1-.84,2.31-1.21,3.07-2.12,1.74-2.08,3.22-4.37,4.8-6.58,.22-.31,.32-.86,.59-.94,3.61-1.17,4.3-4.77,6.2-7.36,.19-.25,.37-.51,.68-.94,.5,.39,.91,.86,1.43,1.09,.56,.25,1.44,.62,1.79,.37,2.06-1.45,4.04-3.02,5.96-4.66,.42-.36,.81-1.35,.6-1.71-1.01-1.81,.34-2.84,1.16-4.02,1.07-1.53,2.02-3.27,3.43-4.42,1.88-1.53,4.06-2.82,6.3-3.74,1.86-.76,3.99-.9,6.02-1.19,4.57-.65,7.12,2.15,6.74,6.62-.11,1.29,1.5,2.77,2.43,4.08,1.23,1.72,2.61,3.32,3.82,5.06,.21,.3-.11,1.42-.21,1.42-2.16,.08-1.72,1.86-1.77,2.98-.08,2.1-1.09,2.49-2.8,1.95-1.39-.43-2.61-.63-3.51,.91-.17,.29-.88,.55-1.2,.43-1.91-.72-2.69-.01-2.5,2.11l-2.16-.65-.54,6.96-1.65-1.42c-.36,.56-.86,1.03-.98,1.58-.41,1.97-1.16,3.33-3.55,3.17-.58-.04-1.23,.81-1.82,1.29-.84,.69-1.56,1.6-2.49,2.1-1.25,.67-2.84,.88-1.85,2.94,.09,.18-.51,1-.78,.99-2.71-.06-4.18,1.85-5.94,3.43-1.41,1.26-3.08,2.25-4.71,3.23-1.08,.65-1.92,1.04-1.55,2.71,.16,.7-1.08,2.17-1.99,2.54-1.42,.58-2.43,.93-3.21,2.6-.68,1.45-2.94,2.08-4.24,3.33-.99,.95-1.57,2.31-2.34,3.49l.62,.69-3.78,.93c-.75,3.47-4.58,4.09-6.4,6.91,.22,.27,.49,.97,.85,1.02,1.55,.18,1.85,.92,2.21,2.43,.25,1.02,2.19,1.82,3.52,2.35,1.3,.51,2.07,1.05,1.95,2.54-.03,.42,.16,1.01,.46,1.29,2.25,2.09,4.28,4.59,6.88,6.09,5.96,3.45,4.56,2.88,8.19,9.24,.51,0,1.09,.11,1.6-.02,1.49-.4,1.98,.14,2.06,1.63,.12,2.23,1.19,2.81,3.42,2.6,3.24-.3,5.64-1.39,6.5-4.89,.26-1.07,1.28-1.95,2.06-3.07,.64,.32,1.21,.74,1.84,.9,1.24,.31,1.96-.03,2.3-1.51,.23-.99,1.11-2.23,2-2.58,2.21-.87,3.42-2.33,3.29-4.91,2.5,.13,3.4-1.49,4.66-3.4,1.24-1.88,3.63-3.11,5.71-4.29,1.75-.99,2.91-2.11,3.64-4.06,.47-1.24,1.92-2.11,2.94-3.14,.85-.85,1.7-1.69,2.58-2.5,1.09-.99,2.19-1.96,3.32-2.89,1.06-.87,2.17-1.66,2.96-2.26,.58-1.11,.92-2.03,1.48-2.78,1.69-2.27,3.46-4.47,4.97-6.41,1.46-.28,2.88-.28,4.02-.83,2.92-1.41,5.26-3.52,6.88-6.41,.48-.86,1.17-1.68,1.95-2.27,1.54-1.17,3.04-2.26,2.75-4.47l5.95-1.2c.09-2.26,1.4-3.81,3.4-5.05,1.25-.77,2.18-2.04,3.29-3.04,1.75-1.58,3.57-3.09,5.29-4.71,.46-.43,.63-1.16,.94-1.76l-.48-.45c1.45-.56,2.91-1.12,4.06-1.57,.66-1.77,1.35-3.3,1.8-4.91,.62-2.23,2.67-1.83,4.14-2.54,1.5-.73,2.84-1.77,4.26-2.66,.33-.21,.79-.58,1.04-.49,2.24,.84,4.91-.26,6.92,1.61,.99,.92,2.14,1.66,3.15,2.57,.58,.52,1.37,1.15,1.45,1.81,.69,5.85,5.71,7.07,9.87,9.49-1.15,2.85,1.94,3.71,3.06,5.51,1.33,2.12,3.56,3.71,5.5,5.4,.64,.56,1.63,.7,2.44,1.08,1.55,.71,3.09,1.45,4.56,2.15-.77,3.16-.77,3.07,2.05,2.98,.58-.02,1.68,.95,1.7,1.5,.13,3.05,.84,4.02,3.77,5.03,.69,.24,1.25,1.05,1.71,1.7,.38,.54,.51,1.24,1.42,2.02,.33-.63,.69-1.26,1-1.9,.55-1.14,.86-2.47,1.66-3.4,2.28-2.66,5.57-4.79,6.93-7.82,1.41-3.13,3.78-4.69,6.02-6.71,.48-.44,.49-1.39,.72-2.11,4.02-.11,5.27-3.49,6.88-5.36,1.41-.66,2.33-.93,3.06-1.46,2.6-1.86,4.69-4.53,8.16-4.99,.25-.03,.49-.37,.68-.61,2.66-3.36,5.17-6.87,9.13-8.89,.24-.12,.45-.44,.54-.72,.86-2.7,3.24-3.82,5.17-5.56,2.45-2.2,5.75-1.86,8.13-3.87,.61-.52,2.11,0,3.2,.05,2.98,.16,4.93,2.6,7.38,3.52,3.79,1.44,4.78,3.95,5.29,7.33,.12,.8,.74,1.53,1.17,2.37l-1.09,.22c.69,2.05,1.21,4.09-1.91,4.51-.3,.04-.73,.54-.76,.85-.19,2.39-2.33,2.89-3.83,3.92-1.06,.73-1.86,1.21-2.14,2.75-.19,1.01-1.88,1.98-3.09,2.5-2.11,.9-4.63,4.37-4.56,6.93-1.47,.57-3.06,1-4.43,1.81-.64,.38-.83,1.5-1.14,2.11l-5.99,2.35c.35,2.42-1.48,2.78-3.25,3-1.41,.18-2.14,.65-2.23,2.2-.03,.59-.77,1.42-1.37,1.65-1.72,.67-3.77,.75-5.24,1.73-1.32,.88-2.09,2.62-3.02,4.03-.23,.35,.03,1.06-.22,1.36-1.12,1.32-2.56,2.41-3.46,3.85-.92,1.48-2.41,1.69-3.67,2.46-.76,.47-1.22,1.42-1.94,1.99-1.27,1.01-2.59,1.96-3.96,2.82-1.44,.9-2.96,1.67-4.44,2.5v.69c1.43,.47,2.86,1.32,4.31,1.33,3.41,.03,4.24,2.34,5.05,4.89,.26,.82,.6,1.75,1.21,2.28,.89,.77,2.05,1.23,3.45,2.02-.07,.44-.23,1.43-.44,2.71,.84,.08,1.61,.06,2.33,.24,.52,.13,1.42,.55,1.4,.79-.11,1.87,1.43,2.16,2.46,3.08,1.42,1.27,2.14,3.48,3.69,4.42,2.45,1.48,3.21,3.75,4.19,6.05,.15,.36,.35,.87,.65,.98,2.54,.94,5.11,1.8,7.72,2.51,.71-1.27-1.17-3.52,1.77-3.03,.52,.09,1.83-1.68,1.93-2.67,.15-1.36,.59-1.7,1.8-1.86,1.91-.26,3.22-.77,3.94-3.22,1.2-4.06,3.59-7.65,8.41-8.46,.33-.06,.74-.33,.91-.62,1.73-2.87,3.4-5.78,5.12-8.66,.28-.46,.69-.85,1.08-1.23,2.27-2.2,4.5-4.45,6.86-6.56,.79-.71,2.11-.85,2.86-1.59,3.27-3.24,6.26-6.76,9.65-9.85,2.23-2.03,4.98-3.49,7.46-5.26,.42-.3,.99-.9,.93-1.26-.37-2.11,.53-2.9,2.54-2.88,.34,0,.75-.32,1-.61,1.89-2.14,3.67-4.38,5.66-6.43,1.29-1.32,2.9-2.32,4.29-3.56,.75-.66,1.32-1.52,2.26-2.63,3.15,.2,4.49-3.12,6.7-5.07,2.2-1.93,4.63-3.85,5.1-6.9l3.57-2.25,1.28,.09,4.52-8.04,11.27-5.13c1.95,.56,4,1,5.93,1.76,.83,.33,2.02,1.38,1.96,2.02-.22,2.73,.72,4.6,2.8,6.37,1.17,1,1.58,2.88,2.35,4.35,.77,1.47,1.57,2.93,2.57,4.8-1.58,1.51-3.67,3.37-5.58,5.4-.91,.97-1.48,2.26-2.21,3.39-.38,.58-.66,1.33-1.2,1.69-1.64,1.11-2.8,2.27-2.1,4.51,.08,.24-1.22,1.33-1.84,1.3-3.5-.16-4.48,.36-6.27,3.49-.32,.55-1.21,.87-1.91,1.09-1.75,.56-3.17,2-3.37,3.67-.5,.13-1.02,.31-1.55,.4-.46,.08-.93,.08-.84,.07-2.37,2.51-4.21,4.96-6.54,6.78-2.88,2.26-5.43,4.57-7.71,7.56-1.48,1.94-3.19,5.71-7.28,4.48-.45,2.55-1.29,4.63-4.44,4.77,1.07,2.18,.43,2.97-1.88,3.29-1.32,.19-3.05,.92-3.28,3.05-.08,.78-1.26,1.48-2,2.15-1.75,1.61-2.43,4.14-4.84,5.28-.66,.31-.7,1.94-1.03,2.97l.56,.43c-.72,.28-1.65,.37-2.11,.88-1.47,1.67-3.46,2.65-5.09,4.1-.57,.51-1.14,1.17-1.82,1.4-3.61,1.2-3.63,1.16-5.45,3.74,.39,.91,.74,1.71,1.09,2.52-.75,.22-1.5,.42-2.24,.67-.96,.33-1.91,.71-2.99,1.12,.15,1.57,1,3.35-1.58,3.96-1.43,.34-2.69,1.42-4.01,2.15-2.47,3.08-5.04,6.29-7.59,9.49,1.27,2.51,1.24,2.55-1.67,3.37-.39,2.26,1.68,2.79,2.87,3.81,1.26,1.08,2.57,1.81,2.99,3.74,.21,.98,1.85,1.64,2.83,2.46,.66,.56,1.7,1.07,1.86,1.77,.53,2.3,3.18,5.16,5.58,5.6,.5,3.85,1.99,4.9,6.13,4.08,0,.6-.16,1.23,.04,1.69,.34,.77,1,2.1,1.36,2.05,2.45-.35,3.16,.4,1.95,2.64,2.64,.63,5.04-1.39,6.14-4.31,.7-1.88,1.08-4.6,4.37-3.98,.35,.06,1.06-.79,1.29-1.35,.75-1.82,1.95-2.97,3.63-4.09,2.68-1.79,4.92-4.23,7.59-6.62l2.55,.81c-.5-1.04-.74-1.55-.84-1.75,2.33-2.41,4.54-4.72,6.77-7,.28-.29,.66-.48,1.01-.7,1.16-.74,2.44-1.35,3.47-2.24,1.63-1.43,2.95-3.26,4.69-4.53,1.27-.93,3.14-1,4.48-1.86,1.12-.71,1.87-2.01,2.78-3.05l-.39-.62c.44,.15,.88,.3,.78,.27,1.32-.78,2.4-1.21,3.21-1.94,.91-.82,1.72-1.82,2.31-2.88,.8-1.44,1.32-2.38,3.41-1.51,1.2,.5,3.15-.07,4.46-.74,1.53-.78,2.31-.74,3.64,.5,1.68,1.57,3.87,2.59,5.83,3.86,.46,.3,1.09,.56,1.27,1,.86,1.98,1.49,4.07,2.39,6.03,.5,1.1,1.33,2.05,2.08,3.02,1.32,1.7,.5,2.98-.82,4.09-.91,.77-1.94,1.39-2.92,2.07l.85,.5,1.01,2.17c-.84,.28-1.71,.87-2.5,.77-2.18-.28-3.93-.34-4.41,2.49-.11,.62-1.34,1.53-2.02,1.5-2.4-.09-2.98,1.37-3.95,3.16-.86,1.58-2.73,2.66-4.26,3.82-1.12,.85-1.63,1.91-2.3,3.1-.86,1.54-3.06,2.4-4.8,3.35-.9,.49-2.04,.53-3.38,.84,.58,.83,.91,1.3,1.33,1.91-.44,.18-.79,.42-1.14,.43-3.74,.08-5.88,1.85-7,5.52-.45,1.47-.87,4.36-4.01,3.23-.3-.11-.93,.69-1.4,1.07-.48,.39-.93,1.13-1.41,1.15-3.31,.14-2.96,2.03-2.04,4.27-.46,.26-.86,.7-1.25,.69-1.95-.07-2.92,.39-3.73,2.6-.75,2.05-3.13,3.49-4.81,5.22,1.05,.08,2.38,.19,3.72,.3l.29,.68c-.88,.54-1.77,1.09-2.77,1.71-.13,1.54,2.08,2.85,8.67,4.67-.91,.85-1.57,1.47-2.31,2.16,1.55,2.18,3.23,4.51,4.9,6.85,1.04-.32,1.76-.54,2.85-.87-1.4,3.92,2.9,3.27,3.84,5.36,.31,.7,.93,1.25,1.37,1.9,.17,.25,.16,.81,.32,.84,3.78,.8,3.94,5.99,7.95,6.54,.38,.05,.72,.76,.97,1.22,.96,1.78,2.22,2.29,3.91,1.08,1.22,1.97,2.33,4.02,3.71,5.86,.71,.94,1.85,1.66,2.94,2.18,1.83,.87,3.9,1.29,5.62,2.33,.81,.49,1.37,1.93,1.46,3,.17,1.97,.51,3.63,2.53,4.5,.29,.13,.58,.59,.62,.92,.21,1.77,.34,3.56,.52,5.54h1.99c-.17,.6-.19,1.28-.41,1.35-2.66,.88-3.33,3.22-4.58,5.34-.75,1.28-2.98,1.68-4.52,2.52-.61,.33-1.16,.77-1.71,1.19-.36,.27-.74,.92-.99,.86-2.11-.51-3.82,.42-5.63,1.23-.6,.27-1.57-.03-2.27-.32-1.47-.6-2.9-1.34-4.31-2.08-1.18-.62-2.08-1.21-2.58-2.83-.73-2.39-2.5-4.22-5.05-5.43-2-.95-3.52-2.92-5.21-4.49-1.08-1-2.07-2.09-3.1-3.14-1.66-1.69-3.25-3.46-5.01-5.04-.81-.73-1.93-1.14-2.96-1.59-2.27-.98-5-1.24-5.47-4.55-.12-.85-1.32-1.53-1.99-2.32-.41-.47-1.06-.99-1.08-1.5-.11-2.6-1.81-3.72-3.85-4.74-1.5-.75-2.88-1.74-4.41-2.68-.49-3.1-2.27-4.59-5.33-4.03,.06-.72,0-1.39,.17-1.99,.63-2.29-1.08-4.85-3.43-5.15-1.37-.18-2.16-.95-3.07-2.15-1.96-2.59-4.52-4.73-6.9-6.98-.28-.26-.98-.08-1.6-.11,.16-.78,.31-1.55,.48-2.41-2.71-1.95-5.55-3.75-8.09-5.91-1.77-1.5-3.05-3.55-4.69-5.22-.87-.89-1.94-1.76-3.09-2.15-2.02-.7-2.86-2.24-3.95-3.87-1.12-1.68-3.08-2.78-4.37-4.38-2.65-3.3-5.09-6.77-7.65-10.15-.46-.61-1.03-1.14-1.26-1.39-2.37,1.45-4.47,2.73-6.94,4.24,.43,2.69-3.04,3.3-4.65,5.23-1.09,1.31-2.54,1.82-1.39,3.9,.64,1.16-.15,2-1.52,1.88-.78-.07-1.54-.34-2.53-.56-.05,2.42-1.13,3.24-3.44,2.52-.47-.15-1.29,.68-1.9,1.13-.72,.53-1.38,1.13-2.2,1.81,.38,2.89-.75,4.11-3.74,4.27-.91,.05-1.76,1.1-2.63,1.71-.98,.68-1.94,1.39-2.92,2.07-.19,.13-.61,.19-.62,.3-.26,3.64-4.64,1.77-5.72,4.29-5.18-.69-4.92,5.45-8.51,6.79-.24,.09-.56,.54-.52,.76,.87,4.34-3.89,3.64-5.31,5.93-.26,.42-.93,.55-1.33,.91-1.56,1.4-2.87,3.54-4.67,4.1-3.19,1-4.16,4.01-6.48,5.69-2.26,1.64-4.56,3.25-6.69,5.05-1.33,1.12-2.3,2.67-3.59,3.84-1.62,1.47-3.4,2.76-5.35,4.31,.25,1.5-.45,2.33-2.45,2.81-3.61,.86-4.51,3.14-2.08,6.04,2.14,2.56,2.2,4.27-.64,6.18,.7,.83,1.29,1.44,1.76,2.13,.28,.42,.56,1.01,.5,1.48-.16,1.14-.42,2.28-.82,3.36-.49,1.34-1.18,2.56,.16,3.9,.13,.13-1.07,1.57-2.02,2.95,.38,.75,1.42,2.05,1.69,3.48,.52,2.82,1.61,5.76-.2,8.56-.04,.06-.17,.12-.17,.16,.44,2.02,.61,4.16,1.43,6.02,.48,1.09,1.47,1.78,.61,3.13-.2,.32,.27,1.01,.17,1.48-.18,.87-.5,1.73-.86,2.55-.32,.72-1.25,1.52-1.09,2.03,.69,2.19,1.66,4.29,2.58,6.4,.28,.65,.73,1.23,1.23,2.05-1.35,.31-2.3,.53-3.64,.83,.98,2.46,1.85,4.63,2.73,6.8,.12,.29,.43,.71,.33,.85-.98,1.4-.57,3.43-1.26,4.48-1.58,2.39-1.53,4.35,.04,6.67-2.47,1.1-2.81,2.5-.91,4.39,.29,.29-.12,1.29-.48,1.93,.87,2.61,1.78,2.7,4.3,1.23,1.94-1.14,4.15-2.14,6.33-2.42,.94-.12,2.14,1.08,3.55,.33,.93-.49,2.07-.57,3.24-.87,.54,.9,1.1,1.83,1.36,2.27,1.87,.37,3.27,.71,4.69,.92,.8,.12,1.73,.27,2.43-.02,1.5-.61,2.89-1.5,4.59-2.42,.34,1.93,1.27,2.65,2.96,1.83,.27-.13,.65-.23,.9-.14,3.33,1.21,4.84,1.14,7.75-.25,.54-.26,1.22-.32,1.84-.31,1.44,.03,2.63-.07,3.8-1.32,.9-.96,2.5-1.39,3.81,.03,.29,.31,1.32,.47,1.43,.31,1.37-2.07,3.85-.69,5.66-1.99,.02,3.62,3.3,.41,4.11,2.04,1.59-.92,3.11-1.8,4.93-2.85,.81,3.92,3.57,4.02,6.51,3.71-.87-3.89-1.68-7.71-1.24-11.75,.25-2.33-.33-4.73-.31-7.09,.02-2.54,.24-5.08,.47-7.62,.13-1.43,.33-2.89,.74-4.27,.57-1.92,.65-3.51-1.44-4.58-.38-.2-.52-.87-.77-1.33,2.04-2.51,2-3.44,.45-6.38-1.1-2.08-1.09-4.29,.34-6.32,1.72-2.42,1.28-5.44-1.38-7.06,.67-1.21,1.41-2.41,2.02-3.68,1-2.08,1.22-4.27,.95-6.57-.21-1.83-1.31-3.47-.84-5.49,.15-.66-1.03-1.62-1.85-2.79,2.82-4.55,5.62-9.56,8.91-14.23,2.5-3.54,4.61-3.63,8.21-1.32,.46,.3,.89,.71,1.39,.89,3.58,1.32,3.83,4.71,4.92,7.64,1.07,2.86,2.33,5.66,3.66,8.41,.89,1.85,.67,2.34-1.52,2.5,.45,2.91,.9,5.82,1.35,8.73,.05,.31,.19,.73,.05,.93-1.66,2.34-.4,4.17,1.16,6.09-1.6,1.68-3.28,3.37-2.3,5.99,.02,.07-.06,.19-.02,.23,2.39,3.09-.47,5.86-.53,8.8-.01,.55-.01,1.13,.15,1.64,.46,1.41,.37,2.41-.33,4-.98,2.2-.38,5.12-.32,7.73,.05,1.74,.34,3.48,.54,5.22,.08,.71,.3,1.4,.34,2.11,.08,1.21,.06,2.42,.09,3.63,.02,1.03,.16,2.07,.03,3.07-.11,.9-.51,1.76-.89,2.97,4.03,2.35-.8,5.74,.62,8.8h13.6c.69,1.68,2.29,2.2,5.25,1.13q3.11-1.13,4.87-.04c1.3-.38,2.32-.68,3.35-.97,1.82-.51,3.64-1.38,5.47-1.41,2.22-.03,4.48,0,6.7,1.03,1.44,.67,3.48,.65,5.04,.22,1.11-.31,1.8-.62,2.61,.28,2.02,2.24,4.81,1.37,6.76,.72,3.87-1.3,7-.3,10.28,1.37,.57,.29,1.75,.43,2,.12,1.2-1.52,2.67-.83,4.11-.87,2.2-.05,4.56-.9,6.54-.33,2.88,.83,5.19-.02,7.7-.9,.43-.15,1.08,.39,1.63,.58,1.66,.57,3.68,1.98,4.92,1.49,2.25-.9,5.48-.82,6.27-4.42,1.15,1.79,1.76,4.07,3.51,3.08,1.91,.85,3.42,1.16,4.4,2.05,1.23,1.11,2.47,2.59,2.88,4.12,.44,1.66-.15,3.57-.14,5.36,0,.98,.67,2.06,.42,2.92-.85,2.97-1.42,6.27-3.17,8.66-1.42,1.94-4.35,2.83-6.72,3.96-.24,.12-1.21-1.28-2.29-2.48-2.09-.04-5.05-1.39-7.83,.82-.41,.32-1.4,.18-2-.06-2.15-.89-3.7-.16-4.65,1.98-.25,.57-1.37,.98-2.13,1.05-.74,.07-2.02-.2-2.2-.66-1.08-2.73-3.28-2-5.33-2.09-2.51-.1-5.16-.03-7.46-.85-1.89-.67-3.04-1.2-3.55,.67-2.74,0-5.22-.01-7.71,.01-.36,0-.92,.09-1.06,.33-1.11,1.88-1.84,.56-2.38-.35-1-1.69-2.39-2.13-4.19-1.7-.37,.09-.81,.3-1.12,.18-2.37-.89-4.71-1.85-7.06-2.8l-.04,.73c-1.17,.06-2.34,.07-3.51,.19-1.61,.16-3.21,.5-4.81,.55-1.92,.06-3.85-.16-5.77-.16-.48,0-1.32,.29-1.39,.59-.43,1.88-1.89,1.5-2.84,1.08-2.39-1.07-4.7-.68-7.11-.3-1,.16-2.11-.45-3.14-.36-3.37,.31-6.73,.79-9.69,1.15-.08,1.73-.35,3.49-.18,5.21,.19,2.01,.44,4.13,1.27,5.92,.78,1.68,.25,2.32-1.12,2.51-1.59,.23-1.51,.75-.96,2,.84,1.91,1.42,3.93,2.1,5.84-2.44,3.11,1.59,4.88,1.47,7.71-.84-.06-1.68-.11-2.71-.18-.1,1.75-.33,3.52-.26,5.27,.13,3.65-.18,7.47,.84,10.88,.78,2.63-.65,4.13-.99,6.15-.29,1.74,.36,3.66,.68,5.49,.14,.82,.54,1.6,.73,2.42,.23,1.04,.49,2.1,.51,3.15,.02,.81-.4,1.62-.46,2.44-.09,1.17-.39,2.54,.1,3.44,.3,.55,2.15,.82,2.91,.43,2.05-1.04,3.72-1.58,6.07-.38,2.84,1.44,6.01,1.49,9.17,.31,1.1-.41,2.49-.07,3.16-.07,1.52,.67,2.6,1.17,3.7,1.6,.24,.09,.8-.01,.86-.17,1.38-3.47,4.93-1.1,7.02-2.61,.1-.07,.34-.09,.43-.02,3.24,2.66,5.44-.41,8.18-1.48,.86,2.97,3.42,3.12,5.91,3.64,2.67,.56,4.5-1.1,6.56-2.16,1.23,2.24,3,2.31,5.42,.22,.61,.33,1.54,.51,1.89,1.06,2.21,3.45,4.97,1.56,7.61,.91,1.76-.43,3.52-.82,5.4-.69l.21-.12-.34-.33c1.44-.49,2.87-1.32,4.33-1.36,.9-.03,1.82,1.16,2.76,1.76,1.28,.81,2.52,1.75,3.91,2.32,.89,.36,2.01,.18,3.02,.18,1.18,0,2.46,.19,3.51-.2,1.25-.46,2.3-1.45,3.15-2.01,1.55,1.59,3.17,3.25,5,5.12-1.59,2.5,1.2,3.8,2.54,5.5,1.12,1.41,1.52,2.57,.96,4.32-.5,1.55-.51,3.25-.77,4.88-.17,1.1-.38,2.12-1.95,1.46-2.01-.84-3.48,.01-4.26,1.85-.53,1.23-.88,1.78-2.2,.81-.36-.26-1.42-.05-1.81,.32-.79,.73-1.34,1.72-2.29,3.01-1.83-.27-3.97-.58-6.49-.95,.01-.02-.31,.57-.64,1.17-3.23-.9-6.42-2.45-9.63-.1-4.47-3-9.06-3.86-13.88-.54,.06,.1,.31,.55,.59,1.03-.27,.09-.52,.2-.53,.18-1.16-2.34-3.85-.69-5.52-2.14-.89-.78-2.66-.7-4.04-.75-2.06-.07-4.13,0-6.19,.16-1.41,.11-2.82,.71-4.21,.65-2.74-.11-5.46-.59-8.19-.8-1.48-.11-2.98,.05-4.47,0-3.26-.1-6.51-.23-9.77-.38-1.54-.07-3.7-.9-4.49-.18-3.16,2.85-6-1.64-8.91,0-3.43-2.06-6.5-.1-9.76,.66-1.69,.39-3.69-.46-5.53-.83-.67-.14-1.3-.51-1.97-.78l-.61,2.23c-.8-.23-1.6-.49-2.41-.67-.51-.12-1.28-.37-1.53-.13-1.63,1.5-2.94,.82-4.41-.28-1.39-1.04-2.59-.53-3.69,.72-1.04,1.19-2.01,1.85-3.69,.37-1.28-1.12-4.09-2.42-4.86-1.84-2.05,1.55-4.7-.69-6.3,1.51-.11,.16-.5,.31-.63,.24-2.87-1.58-6.37,.92-9.14-1.42-.37-.31-1.06-.25-1.6-.37-.66,2.53-1.07,2.5-3.35,1.69-2.3-.82-4.81-1.02-7.23-1.47-.84-.16-1.69-.33-2.54-.4-3.17-.25-6.15,.61-9.2,1.35-2.21,.54-4.6,.35-6.86,.48-.34,.72-.75,1.61-1.17,2.5-.92-.65-1.85-1.31-2.94-2.08-1.63-.08-3.66-.21-5.7-.25-2.31-.04-4.8-.53-6.89,.15-2.31,.75-4.34,.69-6.48,.05-2.02-.6-3.99-1.37-5.98-2.06-.21-.07-.57-.17-.67-.07-2.27,2.25-4.55,.18-6.71-.17-1.2-.19-2.24-1.72-3.23-2.75-1.27-1.33-3.53-1.65-3.81-4.09-.07-.62-1.53-1.23-2.45-1.58-1.7-.64-3.47-1.08-4.77-1.47Zm2.67-288.44c1.03-.47,2.45-.68,3.11-1.5,2.08-2.57,4.83-4.44,6.83-7.1,1.19-1.57,3-2.7,4.6-3.93,1.74-1.34,3.56-2.58,5.41-3.9,3.02,2.49,7.89,1.58,10.47,5.32,.72,1.04,2.22,1.6,2.79,2.68,.86,1.62,1.08,3.57,1.82,5.26,1.03,2.35,1.67,4.54-.36,6.72-.52,.55-.68,1.43-1.13,2.07-1.34,1.9-1.88,4.38-4.14,5.61-3.02,1.65-7.15,1.25-8.95,5.23-.86,1.9-2.52,3.37-4.9,3.48-.11,0-.21,.22-.31,.34-2.09,2.7-3.79,5.88-6.38,7.95-2.29,1.83-4.76,3.4-6.9,5.52-1.39,1.38-2.81,2.38-2.41,4.01-1.22,.78-3.01,1.73-2.94,1.91,.74,1.77-.45,2.08-1.59,2.53-1.2,.47-2.4,.96-3.61,1.45,.8,1.29,1.51,2.65,2.43,3.85,.92,1.19,2.05,2.21,3.09,3.31,.62,.66,1.8,.69,2.56,1.27,.73,.56,1.51,1.75,1.4,2.55-.29,2.25,.36,3.36,2.58,4.13,.95,.33,1.72,1.28,2.49,2.02,1.76,1.71,3.23,3.89,5.29,5.07,1.63,.93,2.7,1.33,1.38,3.21,1.54,.66,2.85,1.22,4.49,1.92,.42-.68,1.15-1.87,1.89-3.07l.34,.53c.88-.48,2.06-.74,2.58-1.48,.96-1.36,1.53-3,2.26-4.52l3.36,.63c1.99-2.47,3.82-4.75,5.64-7.02l1.75,1.12c1.62-2.23,3.08-4.23,4.53-6.24,4.91,1.09,3.39-3.99,5.61-5.67,.36,.05,1.08,.37,1.53,.15,.56-.27,.8-1.29,1.34-1.46,2.43-.76,5.28-.86,5.44-4.44,.02-.39,.7-.99,1.15-1.07,2.52-.48,3.01-2.61,3.91-4.47,.31-.64,.83-1.49,1.41-1.63,1.59-.39,2.4-1.58,3.41-2.63,.91-.94,1.93-1.76,2.93-2.6,.47-.39,1.08-.64,1.5-1.07,2.1-2.16,3.87-4.9,7.59-3.94,.17,.04,.48-.11,.61-.26,.98-1.17,2.89-.6,3.71-2.53,1.12-2.62,4.14-4.21,4.44-7.45,.04-.38,.66-.82,1.1-1.04,1.83-.92,3.7-1.77,5.87-2.79-.22-.09,.38,.35,.57,.21,3.14-2.25,6.78-4.03,7.83-7.69-1.7-2.05-3.04-4.17-4.86-5.74-2.07-1.79-4.37-3.25-5.18-6.1-.1-.36-.66-.63-1.05-.86-.86-.49-1.82-.83-2.62-1.39-1.1-.77-2.05-2.39-3.13-2.44-3.26-.15-2.92-4.29-5.84-4.75-.78-.12-1.38-1.41-2.41-2.54-.15-.49-.29-2.42-.86-2.55-2.9-.69-4.22-3.07-5.07-5.2-1.3-3.25-5.3-4.53-5.55-8.34-.01-.19-.26-.43-.46-.53-1.65-.87-3.32-1.68-4.95-2.57-.69-.38-1.71-.77-1.89-1.37-.89-2.94-3.62-4.14-5.57-6.02-1.49-1.43-2.62-4.04-5.17-3.11-1.42-1.93-2.62-3.74-4.01-5.38-1.13-1.32-2.56-2.38-3.75-3.67-.84-.91-1.29-2.32-2.27-2.93-2.01-1.24-3.66-2.52-4.19-5.02-.15-.71-1.61-1.86-1.96-1.7-2.98,1.36-2.51-1.36-3.29-2.59-1.18-1.84-1.42-4.41-4.11-5.33-1.37,1.78-2.6,3.62-4.09,5.21-.91,.97-2.69,1.3-3.3,2.37-1.6,2.79-4.09,4.13-6.75,5.6-1.86,1.03-3.27,2.92-4.8,4.51-.62,.64-1.03,1.5-1.88,2.77,.51,1.57-.97,2.58-2.93,2.95-1.68,.32-2.53,1.19-3.59,2.54-1.61,2.06-4,3.5-6.05,5.22-1.58,1.33-3.86,2.42-4.51,4.12-.63,1.63-1.15,2.11-2.46,2.15-.26,.81-.65,1.89-1.2,1.98-2.59,.43-2.83,1.48-.62,3.55l-.72,.17-3.49-1.15c-2.83,2.37-4.4,6.48-8.67,7.42,1.24,2.28,.9,3.24-1.33,4.34-.33,.16-.78,.33-.91,.61-1.12,2.33-3.2,3.32-5.47,4.08-.31,.1-.56,.43-.79,.7-1.85,2.11-3.42,4.62-5.64,6.23-1.56,1.14-2.18,2.16-2.36,3.9-.07,.68-.68,1.68-1.26,1.86-3.39,1.07-6.21,2.7-7.31,5.75,.39,1.39,.67,2.4,1.01,3.61,2.07-.12,3.94,.73,5.29,2.81,.55,.85,1.53,1.54,2.47,1.99,1.88,.91,3.92,4.31,3.62,6.27,1.44,.7,3.41,1.02,4.13,2.14,1.08,1.67,2.41,2.53,4.12,3.07,1.62,.52,3.26,.96,4.89,1.43-.66,2.4,.3,5.82,1.82,5.78,2.16-.06,2.97,.88,3.06,2.75,1.91-.04,5.78-2.5,6.77-4.26,.84-1.5,1.62-3.03,2.37-4.57,1.12-2.34,2.49-4.66,4.98-5.48,2.39-.79,3.67-2.51,5.12-4.23,.81-.95,1.69-1.84,2.78-3.02l-.84-1.33c1.81-.21,3.63,1.58,4.85-.68,.7-1.31,1.67-2.48,2.46-3.63Zm38.99,205.06c-1.5-.68-3.57-1.21-5.04-.49-.45,.22-.97,.66-1.11,1.11-.35,1.12-.5,2.3-.76,3.58,2.29,1.49,2.13,1.53,.76,4.27-1,2-1.88,4.28-1.91,6.45-.03,1.93,1.23,3.86,1.79,5.83,.15,.52-.09,1.2-.29,1.76-.66,1.84-2.48,3.54-.4,5.65,.32,.32,.11,1.22,.05,1.85-.11,1.25-.36,2.5-.43,3.75-.2,3.26,.12,6.64-.64,9.75-.53,2.17,.15,2.94,1.89,3.72-1.37,3.84-2.75,7.6-.27,11.41,.79,1.21,1.56,3.65,2.08,3.58,1.89-.26,1.73,1.31,2.51,1.98,.81,.7,1.78,1.23,2.69,1.81,.36,.24,.81,.37,1.11,.66,1.61,1.57,3.25,2.47,4.66,.96,1.56,0,2.73,.33,3.56-.07,1.73-.82,5.36-.57,7.01,.59,1.72,1.21,3.57,.94,5.53,.25,2.36-.84,4.84-1.33,7.27-1.92,.2-.05,.5,.33,.75,.51,.87,.66,1.71,1.38,2.63,1.99,2.17,1.45,4.54,1.21,5.97-.62l1.23,.85c1.05-1.87,2.71-.12,4.05-.66,.94-.37,2.39-.58,3.14-.11,3.15,1.96,6.45,1.27,9.2-.06,1.58-.77,2-.47,2.82,.58,1.41-.93,2.68-1.77,3.98-2.63,.54,.23,1.21,.52,1.94,.83,.82-3.53-1.37-7.19,1.23-10.54l-2-3.31c.65-1.39,1.28-2.4,1.59-3.5,.31-1.11,.29-2.3,.45-3.69,.35-1.09,1.17-2.5,1.15-3.9-.02-1.92-.67-3.84-1.07-5.76-.05-.22-.16-.57-.31-.62-2.44-.78-1.07-3.31-2.06-4.93-.96-1.59,.57-4.65,.9-7.08,.38-2.89,1.49-6.06,.72-8.63-.77-2.56,.14-4.25,.72-6.3,.11-.38,.33-.74,.36-1.12,.17-1.98,.17-3.99,.46-5.95,.41-2.81-.89-4.36-3.64-3.75-2.5,.55-5.24-.27-7.55,1.39-.21,.15-.87-.19-1.25-.43-3.5-2.17-3.93-2.14-6.8,.67-2.15-.52-4.37-1.06-6.6-1.58-.37-.09-.78-.06-1.16-.02-1.86,.2-3.72,.39-5.57,.65-.86,.12-1.7,.4-2.56,.58-2,.41-4.26,1.56-5.95,1-2.19-.72-4.26-.57-6.38-.71-1.04-.07-2.26-.27-3.11,.16-2.34,1.19-4.55,1.74-6.78-.05q-1.34,2.23-4.08,1.02c-1.14,.15-2.21,0-3.28-.18-1.07-.19-2.13-.41-3.19-.62ZM122.66,240.52c.72,.13,1.67,.62,2.1,.33,1.77-1.19,3.48-.75,5.4-.62,1.5,.1,2.67,.8,4,.98,1.94,.26,3.96,.15,5.93,0,1.79-.13,3.59-.38,5.32-.85,1.15-.31,2.16-1.11,2.62-1.36,1.66,.96,2.71,2.02,3.86,2.14,2.65,.28,5.34,.13,8.02,.1,.73,0,1.47-.19,2.2-.29,.81-.12,1.63-.4,2.42-.34,2.43,.19,4.94,1.03,7.26,.64,2.45-.41,4.45-.89,6.25,1.31,.3,.36,1.43,.38,1.98,.13,1.16-.55,2.08-.77,3.49-.52,1.48,.26,3.19-.75,5.15-1.31,1.9,2.63,4.69,.25,6.89,.23,.3-1.39,.72-2.53,.77-3.69,.1-2.66,2.04-5.09,.71-7.95-.7-1.5-1.08-3.22-1.26-4.88-.19-1.75,.02-3.55,.09-5.33,.01-.25,.22-.55,.43-.73,2.71-2.34,1.64-5.39,1.28-8.14-.12-.92-1.75-1.6-2.63-2.46-2.32-2.24-4.57-4.55-6.91-6.76-1.68-1.59-3.43-3.1-5.18-4.61-.39-.34-.96-.8-1.36-.73-2.16,.41-2.77-1.46-3.65-2.6-1.81-2.36-3.04-5.2-5.03-7.37-1.74-1.89-5.05-2.36-4.99-5.84,0-.19-.44-.39-.69-.58-1.92-1.48-3.8-3.01-5.77-4.43-.67-.48-1.86-1.17-2.24-.91-.82,.55-1.43,1.59-1.8,2.55-.27,.68-.18,1.61,.03,2.36,.49,1.76-.54,1.99-1.86,2.23-2.99,.56-6.8-.53-8,3.82-.03,.1-.29,.13-.41,.22-1.81,1.37-3.62,2.75-5.39,4.1,.57,3.91,.57,3.86-3.41,3.98-.64,.02-1.29,.71-1.88,1.17-.53,.41-.89,1.09-1.46,1.38-2.83,1.46-3.82,4.54-2.25,7.23-3.83,1.73-8.33,2.62-9.5,7.26-2.14,1.69-5.03,2.87-5.85,4.88-1.12,2.75-3.69,2.96-5.34,4.59-1.62,1.6-4.04,2.38-5.92,3.41,.45,1.12,.94,2.02,.82,2.1-.59,.43-1.31,.77-2.03,.92-.46,.1-1.2-.43-1.48-.22-2.67,2.01-5.27,4.11-8.04,6.31l2.05,.89c-.18,.4-.3,1.09-.56,1.16-2.06,.5-3.58,2-5.25,2.87-2.17,1.12-2.64,2.75-3.9,4.3,5.9,1.21,11.55,1.36,17.37,.18,1.82,2.27,4.67,2.56,7.4,1.03,1.25-.7,2.61-1.99,4.51-.75,3.08,2.01,4.05,1.63,5.66-1.56Zm100.41,39.8c.27,1.52,.84,3.4,.59,3.52-2.34,1.07-2.16,3.21-2.21,5.06-.06,2.26-.52,4.94,1.67,6.47,2.09,1.46,1.48,3.07,.82,4.7-1.08,2.68-2.28,5.26-.24,8.02,.24,.32,.24,.9,.18,1.34-.59,4.32-1.27,8.62-1.79,12.94-.08,.64,.7,1.34,.84,2.05,.23,1.16,.81,2.82,.28,3.46-1.69,2.04-.1,4.38-1.01,6.42-.18,.4,.48,1.28,.9,1.81,.5,.62,1.18,1.11,1.68,1.57,2.14,.1,4.46-.13,6.58,.4,2.36,.59,4.48,1.25,6.69-.37,1.24-.91,2.65-1.57,4.17-2.44,.14,.62,.23,.98,.31,1.35,.46,1.98,1.92,1.55,3.24,1.29,1.63-.32,1.34-1.29,.89-2.5-.45-1.22-.44-2.6-.82-3.86-.37-1.22-.99-2.37-1.69-4,.84-2.49,2.2-5.63,.13-9.25,.53-.3,1.25-.51,1.65-.99,.34-.41,.6-1.51,.42-1.64-1.78-1.29-1.12-2.94-.6-4.38,.69-1.9,1.29-3.51-1.83-3.88,.4-3.56,.82-6.91,1.16-10.27,.22-2.26,.58-4.62-2.09-5.9-.19-.09-.28-.56-.27-.85,.07-1.19,.25-2.38,.28-3.58,.05-1.9,.01-3.8,.01-6.01,.93-1.17,1.12-6.37,.18-8.26-.38-.77-.48-1.69-.71-2.54-.13-.57-.89-.83-1.4-1.33-1.42-1.38-2.91-2.39-5.03-2.04-.51,.08-1.17-.02-1.61-.29-1.65-1.01-2.8-.68-3.34,1.04-3.08,.14-5.55-2.98-8.66-1.31,.33,1.53,1.22,3.16,.75,3.88-1.46,2.21,.07,4.05,.78,5.46,1.21,2.41,1.48,3.93-.89,4.89Zm-29.37,50.51c.48-1.62,.49-3.44,1.4-4.35,1.45-1.44,1.36-2.65,1.03-4.44-.44-2.34,.02-4.84-.38-7.19-.58-3.39,1.49-6.62,.31-9.98-.05-.13,.07-.32,.05-.47-.16-1.08-.31-2.16-.5-3.23-.4-2.23-1.07-4.44-1.17-6.67-.06-1.46,.85-2.94,1.02-4.45,.1-.93-.43-1.91-.58-2.88-.13-.83-.12-1.69-.14-1.98,.38-1.28,1.11-2.38,.81-2.96-1.58-3.04-.62-5.9-.06-8.95,.34-1.88-.4-3.98-.8-5.96-.04-.22-1.16-.52-1.55-.33-2.58,1.31-5.15,.93-7.77,.25-.73-.19-1.52-.13-2.28-.21-2.74-.3-5.61,.78-8.24-1.09-.68-.48-2.07,.03-2.69,.06,.41,1.62,.71,2.88,1.05,4.13,.54,2.02,.73,4.25,1.73,6,1.46,2.54,1.56,3-1.63,4.3,.66,3.77,1.11,7.72,2.11,11.53,.6,2.28,.61,3.86-1.01,5.26,0,.94,.13,1.63-.02,2.26-.65,2.65-2.37,5.13-.07,8,.72,.9,.22,2.88,.08,4.35-.13,1.33-.53,2.63-.91,4.41-1.28,.46-1.29,1.53-.34,3.2,.54,.95,.8,3.05,.3,3.42-2.47,1.82-.9,3.52-.36,5.39,.33,1.14,.25,2.41,.28,3.63,.04,1.37-.29,2.82,.07,4.09,.3,1.07,1.41,1.72,2.62,.7,.46-.39,.93-.78,1.34-1.13,2.04,2.62,3.78,1.87,5.44-.31,.46,.76,.81,1.35,1.08,1.81,1.22-.2,2.33-.63,3.35-.49,2.57,.35,5.11,.95,7.61,1.45,1.22-4.98,.92-6.28-1.2-7.16Zm-21.07,75.67c.67,.16,1.82,.2,1.91,.53,.18,.63-.05,1.58-.45,2.15-1.51,2.13-2.29,4.3-.82,7.41,1.15-.84,2.34-1.41,3.12-2.34,1.78-2.1,3.36-4.37,5.04-6.57,.23-.31,.53-.8,.8-.81,2.01-.06,2.49-1.86,3.65-2.93,1.42-1.32,2.02-3.22,4.06-4.21,2.75-1.33,3.28-3.57,1.66-4.87-2.87-2.29-5.31-4.85-7.42-7.86-.8-1.15-2.6-1.56-3.83-2.46-1.99-1.46-3.89-3.04-5.81-4.59-1.13-.91-1.8-.63-2.29,1.03,.46-.1,.89-.2,.85-.19-.43,1.92-1.09,3.81-1.21,5.74-.13,1.96-.25,4.22,.57,5.87,1.24,2.47,.27,4.75,.07,6.99-.18,2.04-.8,3.83,1.28,5.24-.49,.78-.89,1.41-1.18,1.86Zm72.07,8.53c.35-.02,.7-.04,1.06-.07-1.55-2.47-.32-3.92,1.13-5.4,.24-.25-.25-1.25-.46-1.89-.18-.55-.55-1.05-.63-1.61-.43-2.87-.84-5.75-1.17-8.63-.13-1.14-.02-2.31-.02-3.52l-1.45-.35,1.87-2.05c-.9-1.36-1.81-2.73-2.71-4.09q2.3-1.58,1.53-5.24c2.74-.8,3.54-2.59,2.15-4.83l.71-.09c-.17-1.51-.33-3.03-.5-4.54l-.81-.08c-.29,1.09-.52,2.21-.9,3.27-.18,.5-.87,1.3-.93,1.27-1.9-1.09-2.21,.15-2.74,1.57-.24,.64-1.28,1.37-1.98,1.39-3.1,.09-3.43,2.81-4.77,4.6-.83,1.11-1.85,2.07-2.82,3.06-.41,.42-1.38,.92-1.31,1.09,.97,2.67-.42,3.21-3.54,2.87,1.05,1.66,1.56,3.47,2.46,3.7,2.73,.69,3.8,2.64,4.85,4.82,.27,.57,.79,1.06,1.3,1.46,1.04,.81,3.13,1.64,3.06,2.28-.37,3.53,3.82,3.88,4.29,6.71,.14,.86,.83,1.64,1.27,2.44,.35,.62,.71,1.23,1.07,1.85Zm-47.89-55.58c.58,1.38,.9,2.24,1.31,3.06,.35,.7,.64,1.57,1.22,1.98,1.61,1.13,3.84,1.64,3.64,4.32,0,.11,.66,.26,1.01,.42,.4,.18,1.08,.33,1.13,.58,.42,2.24,3.97,2.78,3.1,5.71-.04,.12,.26,.39,.45,.53,1.02,.72,4.55-.32,5.21-1.49,.67-1.17,1.17-3.05,2.13-3.33,2.92-.86,4.04-3.4,5.9-5.24,1.29-1.28,2.52-2.61,3.94-4.08-1.37-.15-2.28-.11-3.08-.37-3.61-1.19-7.16-2.11-9.79,.37-2.92-.8-5.39-1.53-7.91-2.1-.44-.1-1.19,.39-1.54,.82-1.26,1.52-2.57,1.24-4.01,.34-.82-.51-1.69-.94-2.7-1.5Zm33.08-116.47c-.56-.91-1.44-1.88-1.82-3.03-.83-2.54-2.32,.69-3.24-.47-.02-.02-.23,.11-.34,.18-.21,2.69,1.45,3.63,5.4,3.31Z"/><path class="cls-1" d="M238.36,156.72c-.79,1.15-1.76,2.32-2.46,3.63-1.21,2.26-3.04,.47-4.85,.68l.84,1.33c-1.1,1.19-1.98,2.07-2.78,3.02-1.45,1.71-2.73,3.44-5.12,4.23-2.5,.82-3.86,3.15-4.98,5.48-.74,1.55-1.53,3.08-2.37,4.57-.98,1.76-4.86,4.22-6.77,4.26-.08-1.88-.9-2.81-3.06-2.75-1.52,.04-2.47-3.38-1.82-5.78-1.63-.47-3.27-.92-4.89-1.43-1.71-.55-3.04-1.4-4.12-3.07-.73-1.12-2.69-1.44-4.13-2.14,.3-1.96-1.74-5.37-3.62-6.27-.94-.45-1.92-1.14-2.47-1.99-1.36-2.08-3.22-2.94-5.29-2.81-.34-1.21-.62-2.22-1.01-3.61,1.1-3.05,3.93-4.68,7.31-5.75,.58-.18,1.19-1.18,1.26-1.86,.19-1.74,.8-2.77,2.36-3.9,2.22-1.61,3.78-4.12,5.64-6.23,.23-.26,.48-.59,.79-.7,2.28-.76,4.36-1.75,5.47-4.08,.14-.29,.58-.45,.91-.61,2.23-1.1,2.57-2.07,1.33-4.34,4.27-.94,5.83-5.05,8.67-7.42l3.49,1.15,.72-.17c-2.22-2.07-1.97-3.13,.62-3.55,.55-.09,.94-1.17,1.2-1.98,1.31-.05,1.83-.53,2.46-2.15,.65-1.7,2.93-2.79,4.51-4.12,2.05-1.72,4.44-3.17,6.05-5.22,1.06-1.35,1.91-2.22,3.59-2.54,1.97-.37,3.44-1.38,2.93-2.95,.85-1.28,1.26-2.13,1.88-2.77,1.53-1.59,2.93-3.48,4.8-4.51,2.66-1.47,5.15-2.81,6.75-5.6,.61-1.06,2.38-1.4,3.3-2.37,1.49-1.59,2.72-3.43,4.09-5.21,2.7,.92,2.94,3.49,4.11,5.33,.79,1.23,.31,3.95,3.29,2.59,.35-.16,1.81,.99,1.96,1.7,.53,2.5,2.18,3.77,4.19,5.02,.98,.61,1.43,2.02,2.27,2.93,1.19,1.28,2.62,2.34,3.75,3.67,1.4,1.64,2.59,3.45,4.01,5.38,2.55-.93,3.68,1.68,5.17,3.11,1.94,1.87,4.68,3.08,5.57,6.02,.18,.6,1.2,.99,1.89,1.37,1.63,.89,3.31,1.7,4.95,2.57,.2,.1,.44,.34,.46,.53,.25,3.81,4.26,5.09,5.55,8.34,.85,2.13,2.17,4.51,5.07,5.2,.57,.13,.71,2.06,.86,2.55,1.03,1.13,1.63,2.42,2.41,2.54,2.91,.46,2.58,4.6,5.84,4.75,1.07,.05,2.03,1.66,3.13,2.44,.8,.57,1.76,.91,2.62,1.39,.4,.22,.95,.5,1.05,.86,.81,2.85,3.1,4.31,5.18,6.1,1.82,1.57,3.16,3.69,4.86,5.74-1.05,3.66-4.69,5.44-7.83,7.69-.19,.13-.78-.3-.57-.21-2.16,1.02-4.03,1.87-5.87,2.79-.45,.22-1.07,.66-1.1,1.04-.3,3.24-3.32,4.83-4.44,7.45-.82,1.93-2.73,1.35-3.71,2.53-.13,.16-.44,.31-.61,.26-3.72-.96-5.49,1.79-7.59,3.94-.42,.43-1.03,.67-1.5,1.07-1,.84-2.03,1.66-2.93,2.6-1.01,1.05-1.82,2.24-3.41,2.63-.58,.14-1.1,.99-1.41,1.63-.9,1.86-1.39,3.99-3.91,4.47-.45,.09-1.13,.69-1.15,1.07-.17,3.58-3.01,3.68-5.44,4.44-.54,.17-.79,1.19-1.34,1.46-.45,.22-1.17-.1-1.53-.15-2.23,1.68-.7,6.76-5.61,5.68-1.45,2.01-2.91,4.01-4.53,6.24l-1.75-1.12c-1.82,2.26-3.65,4.54-5.64,7.02l-3.36-.63c-.73,1.51-1.3,3.15-2.26,4.52-.52,.73-1.7,1-2.58,1.48l-.34-.53c-.73,1.19-1.47,2.38-1.89,3.07-1.65-.7-2.96-1.26-4.49-1.92,1.32-1.88,.25-2.28-1.38-3.21-2.05-1.18-3.52-3.36-5.29-5.07-.77-.75-1.54-1.69-2.49-2.02-2.22-.77-2.87-1.88-2.58-4.13,.1-.8-.68-1.99-1.4-2.55-.76-.58-1.94-.61-2.56-1.27-1.04-1.1-2.17-2.12-3.09-3.31-.92-1.2-1.63-2.56-2.43-3.85,1.21-.49,2.4-.99,3.61-1.45,1.15-.44,2.34-.75,1.59-2.53-.07-.17,1.72-1.13,2.94-1.91-.4-1.62,1.02-2.63,2.41-4.01,2.14-2.12,4.61-3.68,6.9-5.52,2.59-2.07,4.29-5.25,6.38-7.95,.1-.12,.2-.34,.31-.34,2.39-.11,4.04-1.57,4.9-3.48,1.8-3.98,5.93-3.58,8.95-5.23,2.26-1.23,2.8-3.71,4.14-5.61,.45-.64,.61-1.51,1.13-2.07,2.03-2.18,1.39-4.37,.36-6.72-.74-1.7-.96-3.64-1.82-5.26-.57-1.08-2.07-1.63-2.79-2.68-2.59-3.75-7.46-2.83-10.47-5.32-1.85,1.32-3.67,2.56-5.41,3.9-1.6,1.23-3.41,2.36-4.6,3.93-2,2.66-4.76,4.53-6.83,7.1-.66,.82-2.08,1.03-3.11,1.5Z"/><path class="cls-1" d="M277.35,361.78c1.06,.21,2.12,.44,3.19,.62,1.07,.19,2.14,.34,3.28,.18q2.74,1.2,4.08-1.02c2.23,1.8,4.44,1.25,6.78,.05,.85-.43,2.07-.23,3.11-.16,2.13,.14,4.19-.01,6.38,.71,1.69,.56,3.95-.59,5.95-1,.86-.17,1.69-.46,2.56-.58,1.85-.26,3.71-.45,5.57-.65,.38-.04,.79-.07,1.16,.02,2.23,.51,4.45,1.06,6.6,1.58,2.86-2.81,3.29-2.84,6.8-.67,.38,.23,1.04,.58,1.25,.43,2.31-1.66,5.05-.84,7.55-1.39,2.75-.61,4.05,.93,3.64,3.75-.29,1.96-.29,3.97-.46,5.95-.03,.38-.25,.74-.36,1.12-.58,2.04-1.49,3.74-.72,6.3,.77,2.57-.33,5.74-.72,8.63-.32,2.43-1.86,5.49-.9,7.08,.98,1.62-.38,4.15,2.06,4.93,.16,.05,.26,.39,.31,.62,.4,1.92,1.05,3.84,1.07,5.76,.02,1.4-.8,2.81-1.15,3.9-.15,1.38-.14,2.58-.45,3.69-.31,1.1-.94,2.11-1.59,3.5l2,3.31c-2.61,3.34-.42,7-1.23,10.54-.73-.31-1.4-.6-1.94-.83-1.3,.86-2.57,1.7-3.98,2.63-.82-1.05-1.23-1.35-2.82-.58-2.74,1.33-6.05,2.02-9.2,.06-.75-.47-2.2-.26-3.14,.11-1.34,.53-3-1.21-4.05,.66l-1.23-.85c-1.43,1.83-3.8,2.07-5.97,.62-.91-.61-1.75-1.32-2.63-1.99-.25-.19-.55-.56-.75-.51-2.44,.59-4.92,1.09-7.27,1.92-1.96,.69-3.81,.96-5.53-.25-1.65-1.16-5.27-1.41-7.01-.59-.83,.39-2,.07-3.56,.07-1.41,1.52-3.06,.61-4.66-.96-.3-.29-.75-.43-1.11-.66-.91-.59-1.87-1.11-2.69-1.81-.78-.67-.62-2.24-2.51-1.98-.52,.07-1.29-2.37-2.08-3.58-2.48-3.81-1.11-7.56,.27-11.41-1.74-.78-2.42-1.54-1.89-3.72,.76-3.12,.45-6.49,.64-9.75,.08-1.25,.32-2.5,.43-3.75,.06-.62,.27-1.53-.05-1.85-2.09-2.1-.26-3.8,.4-5.65,.2-.56,.44-1.24,.29-1.76-.56-1.97-1.82-3.9-1.79-5.83,.04-2.17,.92-4.46,1.91-6.45,1.37-2.74,1.53-2.78-.76-4.27,.26-1.28,.41-2.46,.76-3.58,.14-.45,.66-.89,1.11-1.11,1.47-.72,3.54-.19,5.04,.49Z"/><path class="cls-1" d="M122.66,240.52c-1.61,3.2-2.58,3.57-5.66,1.56-1.9-1.24-3.26,.06-4.51,.75-2.73,1.52-5.59,1.23-7.4-1.03-5.83,1.18-11.47,1.03-17.37-.18,1.26-1.55,1.73-3.18,3.9-4.3,1.67-.87,3.19-2.37,5.25-2.87,.26-.06,.38-.76,.56-1.16l-2.05-.89c2.77-2.2,5.37-4.3,8.04-6.31,.28-.21,1.02,.32,1.48,.22,.72-.16,1.44-.49,2.03-.92,.11-.08-.37-.98-.82-2.1,1.88-1.04,4.31-1.82,5.92-3.41,1.65-1.63,4.22-1.84,5.34-4.59,.82-2.02,3.71-3.19,5.85-4.88,1.16-4.64,5.67-5.54,9.5-7.26-1.57-2.69-.58-5.76,2.25-7.23,.57-.29,.93-.97,1.46-1.38,.59-.46,1.24-1.15,1.88-1.17,3.98-.13,3.98-.07,3.41-3.98,1.77-1.35,3.58-2.73,5.39-4.1,.12-.09,.38-.12,.41-.22,1.2-4.35,5.01-3.27,8-3.82,1.32-.24,2.35-.47,1.86-2.23-.21-.74-.3-1.67-.03-2.36,.38-.96,.99-2,1.8-2.55,.38-.26,1.57,.43,2.24,.91,1.97,1.42,3.85,2.94,5.77,4.43,.24,.19,.69,.39,.69,.58-.06,3.48,3.25,3.95,4.99,5.84,1.99,2.16,3.22,5.01,5.03,7.37,.88,1.14,1.49,3.01,3.65,2.6,.4-.07,.97,.39,1.36,.73,1.75,1.51,3.51,3.02,5.18,4.61,2.34,2.22,4.59,4.52,6.91,6.76,.88,.85,2.51,1.54,2.63,2.46,.36,2.75,1.43,5.8-1.28,8.14-.21,.18-.42,.48-.43,.73-.08,1.78-.28,3.57-.09,5.33,.18,1.66,.56,3.38,1.26,4.88,1.33,2.86-.61,5.3-.71,7.95-.04,1.16-.46,2.3-.77,3.69-2.2,.02-4.99,2.41-6.89-.23-1.96,.56-3.67,1.57-5.15,1.31-1.41-.25-2.33-.03-3.49,.52-.54,.26-1.68,.24-1.98-.13-1.8-2.19-3.8-1.72-6.25-1.31-2.32,.39-4.82-.45-7.26-.64-.79-.06-1.61,.22-2.42,.34-.73,.11-1.47,.29-2.2,.29-2.67,.03-5.37,.18-8.02-.1-1.15-.12-2.2-1.18-3.86-2.14-.45,.25-1.47,1.04-2.62,1.36-1.72,.47-3.53,.72-5.32,.85-1.97,.15-3.98,.26-5.93,0-1.33-.18-2.5-.88-4-.98-1.93-.13-3.63-.57-5.4,.62-.43,.29-1.39-.2-2.1-.33Z"/><path class="cls-1" d="M223.07,280.32c2.38-.96,2.1-2.48,.89-4.89-.71-1.4-2.23-3.25-.78-5.46,.48-.73-.41-2.35-.75-3.88,3.11-1.68,5.59,1.45,8.66,1.31,.53-1.72,1.68-2.05,3.34-1.04,.44,.27,1.09,.37,1.61,.29,2.12-.34,3.61,.66,5.03,2.04,.52,.5,1.27,.76,1.4,1.33,.23,.85,.32,1.77,.71,2.54,.94,1.89,.76,7.09-.18,8.26,0,2.21,.04,4.11-.01,6.01-.03,1.19-.22,2.38-.28,3.58-.02,.28,.08,.76,.27,.85,2.67,1.28,2.31,3.64,2.09,5.9-.33,3.36-.75,6.71-1.16,10.27,3.12,.37,2.53,1.98,1.83,3.88-.52,1.43-1.18,3.09,.6,4.38,.18,.13-.08,1.23-.42,1.64-.4,.48-1.12,.69-1.65,.99,2.07,3.62,.71,6.76-.13,9.25,.7,1.63,1.31,2.78,1.69,4,.38,1.25,.38,2.63,.82,3.86,.44,1.22,.74,2.18-.89,2.5-1.32,.26-2.78,.69-3.24-1.29-.08-.37-.17-.73-.31-1.35-1.51,.87-2.93,1.53-4.17,2.44-2.21,1.62-4.33,.96-6.69,.37-2.13-.53-4.45-.3-6.58-.4-.5-.46-1.18-.95-1.68-1.57-.43-.53-1.08-1.41-.9-1.81,.91-2.05-.68-4.39,1.01-6.42,.53-.65-.05-2.3-.28-3.46-.14-.72-.92-1.42-.84-2.05,.52-4.32,1.19-8.63,1.79-12.94,.06-.44,.06-1.02-.18-1.34-2.04-2.76-.84-5.34,.24-8.02,.66-1.63,1.27-3.24-.82-4.7-2.19-1.53-1.73-4.2-1.67-6.47,.05-1.85-.13-3.99,2.21-5.06,.24-.11-.32-2-.59-3.52Z"/><path class="cls-1" d="M193.69,330.83c2.13,.89,2.42,2.19,1.2,7.16-2.5-.49-5.04-1.1-7.61-1.45-1.03-.14-2.13,.29-3.35,.49-.28-.46-.63-1.05-1.08-1.81-1.66,2.18-3.4,2.93-5.44,.31-.41,.35-.87,.74-1.34,1.13-1.21,1.02-2.32,.37-2.62-.7-.36-1.27-.03-2.72-.07-4.09-.03-1.22,.05-2.49-.28-3.63-.54-1.87-2.11-3.57,.36-5.39,.5-.37,.24-2.47-.3-3.42-.95-1.67-.94-2.74,.34-3.2,.38-1.79,.78-3.09,.91-4.41,.14-1.47,.64-3.45-.08-4.35-2.3-2.87-.58-5.35,.07-8,.15-.63,.02-1.32,.02-2.26,1.62-1.4,1.61-2.97,1.01-5.26-1-3.81-1.45-7.76-2.11-11.53,3.19-1.3,3.09-1.76,1.63-4.3-1.01-1.75-1.2-3.98-1.73-6-.33-1.25-.64-2.52-1.05-4.13,.62-.03,2.01-.54,2.69-.06,2.63,1.87,5.5,.79,8.24,1.09,.76,.08,1.55,.02,2.28,.21,2.62,.68,5.19,1.07,7.77-.25,.39-.2,1.5,.11,1.55,.33,.4,1.97,1.15,4.07,.8,5.96-.56,3.04-1.52,5.9,.06,8.95,.3,.57-.43,1.68-.81,2.96,.02,.3,0,1.15,.14,1.98,.15,.97,.68,1.96,.58,2.88-.17,1.51-1.08,2.99-1.02,4.45,.09,2.24,.76,4.45,1.17,6.67,.19,1.07,.34,2.15,.5,3.23,.02,.15-.09,.33-.05,.47,1.18,3.36-.89,6.59-.31,9.98,.4,2.35-.05,4.85,.38,7.19,.33,1.79,.43,2.99-1.03,4.44-.91,.91-.92,2.72-1.4,4.35Z"/><path class="cls-1" d="M172.62,406.5c.29-.45,.69-1.09,1.18-1.86-2.07-1.41-1.46-3.2-1.28-5.24,.2-2.24,1.16-4.52-.07-6.99-.82-1.65-.7-3.91-.57-5.87,.12-1.93,.78-3.82,1.21-5.74,.04,0-.39,.09-.85,.19,.5-1.66,1.16-1.94,2.29-1.03,1.92,1.55,3.82,3.13,5.81,4.59,1.23,.9,3.02,1.31,3.83,2.46,2.11,3.01,4.55,5.57,7.42,7.86,1.62,1.29,1.08,3.54-1.66,4.87-2.05,.99-2.64,2.89-4.06,4.21-1.16,1.07-1.64,2.87-3.65,2.93-.28,0-.57,.5-.8,.81-1.67,2.19-3.25,4.47-5.04,6.57-.78,.92-1.98,1.5-3.12,2.34-1.47-3.11-.7-5.28,.82-7.41,.4-.57,.63-1.51,.45-2.15-.09-.33-1.25-.36-1.91-.53Z"/><path class="cls-1" d="M244.69,415.03c-.36-.62-.72-1.23-1.07-1.85-.45-.81-1.13-1.58-1.27-2.44-.47-2.83-4.66-3.18-4.29-6.71,.07-.64-2.02-1.47-3.06-2.28-.51-.4-1.03-.89-1.3-1.46-1.05-2.19-2.12-4.13-4.85-4.82-.91-.23-1.41-2.04-2.46-3.7,3.12,.34,4.52-.2,3.54-2.87-.06-.18,.9-.67,1.31-1.09,.97-.99,2-1.95,2.82-3.06,1.34-1.8,1.68-4.51,4.77-4.6,.7-.02,1.73-.75,1.98-1.39,.54-1.42,.85-2.66,2.74-1.57,.06,.03,.75-.78,.93-1.27,.38-1.06,.61-2.18,.9-3.27l.81,.08c.17,1.51,.33,3.03,.5,4.54l-.71,.09c1.38,2.24,.59,4.03-2.15,4.83q.77,3.66-1.53,5.24c.91,1.37,1.81,2.74,2.71,4.09l-1.87,2.05,1.45,.35c0,1.21-.11,2.38,.02,3.52,.33,2.89,.74,5.76,1.17,8.63,.08,.55,.45,1.06,.63,1.61,.21,.64,.7,1.64,.46,1.89-1.45,1.48-2.68,2.93-1.13,5.4-.35,.02-.7,.04-1.06,.07Z"/><path class="cls-1" d="M196.8,359.45c1.01,.56,1.88,.99,2.7,1.5,1.44,.9,2.74,1.18,4.01-.34,.36-.43,1.1-.92,1.54-.82,2.51,.57,4.99,1.3,7.91,2.1,2.63-2.49,6.18-1.56,9.79-.37,.8,.27,1.71,.22,3.08,.37-1.42,1.47-2.65,2.81-3.94,4.08-1.86,1.84-2.98,4.39-5.9,5.24-.95,.28-1.46,2.16-2.13,3.33-.66,1.17-4.19,2.21-5.21,1.49-.19-.13-.49-.4-.45-.53,.88-2.93-2.67-3.47-3.1-5.71-.05-.26-.73-.4-1.13-.58-.34-.16-1.02-.31-1.01-.42,.2-2.67-2.03-3.18-3.64-4.32-.58-.41-.87-1.28-1.22-1.98-.41-.82-.72-1.68-1.31-3.06Z"/><path class="cls-1" d="M229.88,242.98c-3.95,.32-5.61-.62-5.4-3.32,.12-.06,.33-.2,.35-.18,.92,1.15,2.4-2.07,3.24,.47,.38,1.14,1.26,2.12,1.82,3.03Z"/></svg>